<?xml version="1.0" standalone="no"?>
<!DOCTYPE svg PUBLIC "-//W3C//DTD SVG 1.1//EN" "http://www.w3.org/Graphics/SVG/1.1/DTD/svg11.dtd" >
<svg xmlns="http://www.w3.org/2000/svg">
<metadata></metadata>
<defs>
<font id="magallanes_condregular" horiz-adv-x="549" >
<font-face units-per-em="1000" ascent="750" descent="-250" />
<missing-glyph horiz-adv-x="228" />
<glyph horiz-adv-x="1000" />
<glyph horiz-adv-x="1000" />
<glyph unicode="&#xd;" horiz-adv-x="1000" />
<glyph unicode=" "  horiz-adv-x="228" />
<glyph unicode="&#x09;" horiz-adv-x="228" />
<glyph unicode="&#xa0;" horiz-adv-x="228" />
<glyph unicode="!" horiz-adv-x="243" d="M154 183h-63l-20 517h100zM179 47q0 -26 -16.5 -44t-40.5 -18q-25 0 -41.5 18t-16.5 44t16.5 44t41.5 18q24 0 40.5 -18t16.5 -44z" />
<glyph unicode="&#x22;" horiz-adv-x="307" d="M121 556h-58l-11 183h80zM244 556h-59l-11 183h80z" />
<glyph unicode="#" horiz-adv-x="603" d="M508 145h-88l-37 -145h-79l37 145h-145l-37 -145h-79l37 145h-73v78h94l27 105h-72v78h94l31 123h79l-31 -123h145l31 123h79l-31 -123h68v-78h-90l-27 -105h67v-78zM362 223l27 105h-145l-27 -105h145z" />
<glyph unicode="$" horiz-adv-x="597" d="M337 749h-59l-12 216h81zM347 -287h-81l12 216h59zM560 640l-33 -78q-9 8 -26 19.5t-74 30.5t-120 19q-84 0 -126 -30.5t-42 -81.5q0 -56 41 -85t133 -46q136 -25 193 -65t57 -130t-66.5 -149t-195.5 -59q-57 0 -106 10t-78.5 24.5t-51 29t-29.5 24.5l-9 10l43 69 q3 -4 9.5 -10t28 -21t46.5 -27t64.5 -21.5t82.5 -9.5q80 0 123 30.5t43 85.5t-32 79t-135 46q-66 14 -108 28t-78.5 37t-53 57.5t-16.5 82.5q0 85 66.5 144.5t195.5 59.5q72 0 135.5 -18.5t90.5 -36.5z" />
<glyph unicode="%" horiz-adv-x="632" d="M128 -15h-72l448 728h72zM597 133q0 -67 -35.5 -107.5t-98.5 -40.5t-99.5 41t-36.5 107t36 106t100 40q63 0 98.5 -40t35.5 -106zM463 41q36 0 56.5 25t20.5 67q0 41 -21 65t-56 24q-36 0 -57 -24t-21 -65q0 -42 21 -67t57 -25zM305 567q0 -67 -36 -107.5t-99 -40.5 t-99 40.5t-36 107.5t35.5 106.5t99.5 39.5t99.5 -39.5t35.5 -106.5zM170 475q36 0 56.5 25t20.5 67q0 41 -20.5 65t-56.5 24t-56.5 -24t-20.5 -65q0 -42 20.5 -67t56.5 -25z" />
<glyph unicode="&#x26;" horiz-adv-x="624" d="M590 25l-57 -57l-59 69q-74 -53 -177 -53q-111 0 -175.5 54t-64.5 152q0 115 116 200q-56 75 -56 152q0 76 50.5 123.5t140.5 47.5q59 0 106 -18t65 -36l18 -18l-37 -62q-6 6 -16.5 15.5t-49 25t-82.5 15.5q-49 0 -77 -26t-28 -67q0 -12 2 -23.5t4 -20t8.5 -20.5t9 -17.5 t12.5 -19t12 -16t15 -18t14 -17.5l192 -230q24 46 24 103h83q0 -95 -52 -168zM297 62q75 0 125 36l-205 240q-76 -54 -76 -146q0 -61 42 -95.5t114 -34.5z" />
<glyph unicode="'" horiz-adv-x="184" d="M121 556h-58l-11 183h80z" />
<glyph unicode="(" horiz-adv-x="263" d="M242 -256l-59 -41q-6 8 -15.5 23t-33.5 67t-42.5 110t-33.5 150t-15 188q0 97 14.5 188t35 152t41 108t34.5 69l15 22l59 -41q-5 -7 -14 -20.5t-31 -61t-39 -100.5t-31 -138.5t-14 -176.5t13.5 -176t32.5 -141t37.5 -99t31.5 -62z" />
<glyph unicode=")" horiz-adv-x="264" d="M81 -297l-59 41q5 7 14 20.5t31 61t39 100.5t31 139t14 177t-13.5 175.5t-32.5 140.5t-37.5 99t-31.5 63l-14 19l59 41q6 -8 15.5 -23t33.5 -67t43 -110t34 -150t15 -189q0 -96 -14.5 -187t-35 -152t-41.5 -108t-35 -69z" />
<glyph unicode="*" horiz-adv-x="455" d="M372 426l-117 90l10 -160h-75l11 161l-118 -91l-37 68l128 71l-128 69l37 68l118 -89l-11 159h75l-10 -158l117 88l38 -68l-129 -69l129 -71z" />
<glyph unicode="+" horiz-adv-x="520" d="M299 116h-78v210h-186v78h186v210h78v-210h187v-78h-187v-210z" />
<glyph unicode="," horiz-adv-x="233" d="M102 -162l-20 24q4 3 10.5 10t17.5 37t11 69v8q-3 -1 -7 -1q-25 0 -42 18t-17 44t17 44t42 18q63 0 63 -82q0 -45 -7.5 -81t-18.5 -55t-22.5 -32t-18.5 -17z" />
<glyph unicode="-" horiz-adv-x="379" d="M316 238h-253v78h253v-78z" />
<glyph unicode="." horiz-adv-x="227" d="M172 47q0 -26 -16.5 -44t-41.5 -18t-42 18t-17 44t17 44t42 18t41.5 -18t16.5 -44z" />
<glyph unicode="/" horiz-adv-x="382" d="M107 -248h-78l247 948h78z" />
<glyph unicode="0" horiz-adv-x="654" d="M327 -15q-92 0 -156.5 51.5t-93.5 133.5t-29 186q0 159 76 258t203 99t203.5 -99t76.5 -258q0 -77 -17 -143t-50.5 -117.5t-88 -81t-124.5 -29.5zM327 64q64 0 108 42.5t63 106.5t19 143q0 128 -52.5 203.5t-137.5 75.5t-137.5 -75.5t-52.5 -203.5q0 -123 48.5 -207.5 t141.5 -84.5z" />
<glyph unicode="1" horiz-adv-x="443" d="M360 0h-89v603l-221 -150l-43 68l266 179h87v-700z" />
<glyph unicode="2" d="M505 0h-460v68l189 151q41 32 57.5 46.5t43 41.5t37 48.5t19 54.5t8.5 72q0 66 -40.5 109t-109.5 43q-49 0 -92.5 -16.5t-62.5 -33.5l-20 -16l-40 68q3 3 9 8.5t27 18.5t44 23t60.5 18.5t76.5 8.5q114 0 176 -64t62 -167q0 -101 -38 -163.5t-132 -141.5l-125 -99h311v-78 z" />
<glyph unicode="3" horiz-adv-x="576" d="M239 319v79q76 0 127.5 28t51.5 96q0 51 -39 81.5t-110 30.5q-45 0 -87.5 -16.5t-61.5 -33.5l-20 -16l-39 70q3 3 9 8t26.5 18t43 23t58 18t71.5 8q111 0 175 -53t64 -138q0 -138 -129 -163q63 -6 106.5 -47t43.5 -127q0 -91 -69.5 -145.5t-192.5 -54.5q-66 0 -127 23.5 t-89 47.5l-28 23l45 67q3 -3 9 -8.5t26 -20t41.5 -25t55 -19.5t67.5 -9q79 0 126 31.5t47 89.5q0 73 -58 103.5t-143 30.5z" />
<glyph unicode="4" horiz-adv-x="540" d="M437 0h-87v160h-326v64l232 469h95l-223 -455h222v193h87v-193h78v-78h-78v-160z" />
<glyph unicode="5" horiz-adv-x="577" d="M500 622h-318l-16 -203q60 17 122 17q39 0 72.5 -6t67 -22t57 -41.5t38 -66.5t14.5 -95q0 -106 -65 -163.5t-184 -57.5q-69 0 -134 22t-95 44l-30 22l40 65q11 -8 30 -20.5t76 -33t112 -20.5q78 0 119.5 36t41.5 106q0 81 -47 116t-118 35q-47 0 -99 -11t-81 -22l-29 -11 l27 388h399v-78z" />
<glyph unicode="6" horiz-adv-x="592" d="M342 634q-93 0 -148 -71t-58 -195q76 73 174 73q117 0 180 -60t63 -171q0 -98 -66.5 -161.5t-172.5 -63.5q-132 0 -199 101t-67 270q0 162 75.5 259.5t216.5 97.5q52 0 98.5 -14.5t66.5 -28.5l20 -15l-39 -68q-6 5 -17 13t-48.5 21t-78.5 13zM310 361q-95 0 -172 -71 q10 -113 56 -170t120 -57q149 0 149 147q0 71 -41.5 111t-111.5 40z" />
<glyph unicode="7" horiz-adv-x="491" d="M229 0h-103l246 622h-357v78h460v-63z" />
<glyph unicode="8" horiz-adv-x="607" d="M431 371q129 -56 129 -186q0 -87 -62.5 -143.5t-192.5 -56.5q-134 0 -196 54.5t-62 140.5q0 126 144 183q-123 45 -123 169q0 80 63.5 130.5t173.5 50.5q107 0 170 -50.5t63 -130.5q0 -117 -107 -161zM305 338q-168 -41 -168 -153q0 -51 42 -85.5t126 -34.5t124.5 35.5 t40.5 89.5q0 120 -165 148zM305 404l34 -7q52 13 80 42t28 88q0 47 -39 77t-103 30q-66 0 -106.5 -30t-40.5 -77q0 -22 6 -40t18.5 -30.5t23.5 -21t29.5 -14.5t27.5 -8.5t25 -5.5z" />
<glyph unicode="9" horiz-adv-x="593" d="M253 64q92 0 147 70.5t59 195.5q-76 -73 -174 -73q-117 0 -180 60t-63 171q0 98 66.5 161.5t172.5 63.5q132 0 199 -101t67 -270q0 -162 -75.5 -259.5t-216.5 -97.5q-52 0 -98.5 14.5t-66.5 28.5l-20 15l39 68q6 -5 17 -13t48.5 -21t78.5 -13zM285 337q97 0 171 71 q-10 112 -55.5 169.5t-119.5 57.5q-149 0 -149 -147q0 -71 41.5 -111t111.5 -40z" />
<glyph unicode=":" horiz-adv-x="241" d="M179 47q0 -26 -16.5 -44t-41.5 -18t-41.5 18t-16.5 44t16.5 44t41.5 18t41.5 -18t16.5 -44zM178 422q0 -26 -16.5 -44t-41.5 -18t-41.5 18t-16.5 44t16.5 44t41.5 18t41.5 -18t16.5 -44z" />
<glyph unicode=";" horiz-adv-x="249" d="M180 422q0 -26 -16.5 -44t-41.5 -18t-41.5 18t-16.5 44t16.5 44t41.5 18t41.5 -18t16.5 -44zM110 -162l-20 24q4 3 10.5 10t17.5 37t11 69v8q-3 -1 -7 -1q-25 0 -41.5 18t-16.5 44t16.5 44t41.5 18q32 0 48 -22.5t16 -59.5q0 -45 -8 -81t-19 -55t-22 -32t-19 -17z" />
<glyph unicode="&#x3c;" horiz-adv-x="363" d="M309 17l-269 200v85l269 200v-93l-205 -150l205 -149v-93z" />
<glyph unicode="=" horiz-adv-x="482" d="M419 356h-355v78h355v-78zM419 135h-355v78h355v-78z" />
<glyph unicode="&#x3e;" horiz-adv-x="363" d="M323 217l-269 -200v93l204 149l-204 150v93l269 -200v-85z" />
<glyph unicode="?" horiz-adv-x="509" d="M278 156h-85v116q8 2 20.5 7t44.5 23.5t56.5 42t44.5 64.5t20 88q0 61 -36.5 99.5t-96.5 38.5q-48 0 -93 -16.5t-67 -33.5l-21 -17l-39 68q3 3 9.5 8.5t28 18.5t45.5 23t61 18.5t76 8.5q105 0 163.5 -60t58.5 -156q0 -52 -19.5 -98.5t-47.5 -75.5t-56 -50t-47 -30l-20 -9 v-78zM290 47q0 -26 -16.5 -44t-41.5 -18t-41.5 18t-16.5 44t16.5 44t41.5 18t41.5 -18t16.5 -44z" />
<glyph unicode="@" horiz-adv-x="915" d="M304 -129l-42 -65q-109 63 -164 181t-55 265q0 207 115.5 335.5t306.5 128.5t305.5 -121.5t114.5 -317.5q0 -142 -66 -212.5t-171 -70.5q-32 0 -49 13t-22 43h-1q-62 -65 -146 -65q-100 0 -154.5 70.5t-54.5 181.5q0 107 65.5 176t178.5 69q50 0 97.5 -17.5t69.5 -34.5 l22 -18v-326q0 -16 5 -21.5t16 -5.5q130 0 130 218q0 170 -93.5 269.5t-246.5 99.5q-154 0 -247.5 -106t-93.5 -288q0 -127 44.5 -226t135.5 -155zM574 117v265q-42 30 -114 30t-115 -48t-43 -127q0 -87 37 -134.5t109 -47.5q71 0 126 62z" />
<glyph unicode="A" horiz-adv-x="636" d="M618 0h-92l-66 187h-284l-66 -187h-92l253 700h94zM430 265l-112 320l-113 -320h225z" />
<glyph unicode="B" horiz-adv-x="628" d="M364 0h-281v700h269q103 0 153 -47.5t50 -129.5q0 -132 -112 -165q77 -14 110 -55.5t33 -116.5q0 -87 -60.5 -136.5t-161.5 -49.5zM354 317h-183v-239h192q135 0 135 113q0 63 -38.5 94.5t-105.5 31.5zM350 622h-179v-232h182q46 0 79 33.5t33 94.5q0 47 -30 75.5 t-85 28.5z" />
<glyph unicode="C" horiz-adv-x="673" d="M627 142l28 -71q-4 -3 -11 -9t-32 -21t-53 -26t-72.5 -20.5t-91.5 -9.5q-92 0 -160.5 29.5t-109 81.5t-60 117t-19.5 143q0 162 92 259.5t257 97.5q69 0 125 -16.5t77 -32.5l21 -17l-40 -70q-6 6 -19 16t-60 26t-104 16q-121 0 -190 -74t-69 -205q0 -130 64.5 -211.5 t195.5 -81.5q38 0 76 8t64.5 19.5t48 23.5t31.5 20z" />
<glyph unicode="D" horiz-adv-x="695" d="M308 0h-225v700h225q165 0 252.5 -90.5t87.5 -263.5q0 -170 -90 -258t-250 -88zM171 78h122q131 -1 198.5 63t67.5 205q0 142 -67.5 209t-201.5 67h-119v-544z" />
<glyph unicode="E" horiz-adv-x="602" d="M560 0h-477v700h477v-78h-389v-241h317v-78h-317v-225h389v-78z" />
<glyph unicode="F" horiz-adv-x="580" d="M488 303h-317v-303h-88v700h477v-78h-389v-241h317v-78z" />
<glyph unicode="G" horiz-adv-x="693" d="M558 106v168h-211v78h294v-281q-4 -3 -10.5 -9t-30 -21t-50 -26t-68.5 -20.5t-87 -9.5q-92 0 -160.5 29.5t-109 81.5t-60 117t-19.5 143q0 162 92 259.5t257 97.5q69 0 125 -16.5t77 -32.5l21 -17l-40 -72l-6.5 6.5t-21 14.5t-36 18t-51.5 14.5t-68 6.5q-121 0 -190 -74 t-69 -205q0 -130 64.5 -211.5t195.5 -81.5q82 0 162 43z" />
<glyph unicode="H" horiz-adv-x="699" d="M616 0h-88v310h-357v-310h-88v700h88v-312h357v312h88v-700z" />
<glyph unicode="I" horiz-adv-x="254" d="M171 0h-88v700h88v-700z" />
<glyph unicode="J" horiz-adv-x="261" d="M76 -38l-43 47q7 5 17.5 15t28 44.5t17.5 73.5v558h87v-556q0 -41 -11 -74.5t-26.5 -52.5t-31.5 -32.5t-27 -18.5z" />
<glyph unicode="K" horiz-adv-x="660" d="M634 83l26 -50q-4 -4 -12.5 -10.5t-35.5 -17.5t-56 -11q-47 0 -77 16t-52 58l-102 199q-8 -1 -23 -1h-131v-266h-88v700h88v-356h131q89 0 126.5 87t37.5 269h88q0 -175 -33 -277t-109 -138l95 -179q23 -43 69 -43q13 0 27.5 5t22.5 10z" />
<glyph unicode="L" horiz-adv-x="559" d="M556 0h-473v700h88v-622h385v-78z" />
<glyph unicode="M" horiz-adv-x="778" d="M695 0h-87v481l-189 -481h-60l-188 481v-481h-88v700h78l231 -563l225 563h78v-700z" />
<glyph unicode="N" horiz-adv-x="686" d="M603 0h-73l-359 535v-535h-88v700h76l357 -540v540h87v-700z" />
<glyph unicode="O" horiz-adv-x="756" d="M711 351q0 -76 -20 -141t-59.5 -116t-104.5 -80t-149 -29q-111 0 -188 51t-111 131.5t-34 183.5q0 163 89 262.5t244 99.5q154 0 243.5 -99.5t89.5 -262.5zM622 351q0 134 -65 209t-179 75t-179 -75t-65 -209q0 -126 61 -207t183 -81q121 0 182.5 81t61.5 207z" />
<glyph unicode="P" horiz-adv-x="640" d="M171 0h-88v700h278q118 0 183 -64t65 -191q0 -119 -65 -178t-183 -59h-190v-208zM171 286h190q80 0 119 38.5t39 120.5q0 177 -158 177h-190v-336z" />
<glyph unicode="Q" horiz-adv-x="758" d="M589 -185v-78q-124 0 -188 58t-67 192q-143 13 -215.5 114t-72.5 250q0 163 89 262.5t244 99.5q154 0 243.5 -99.5t89.5 -262.5q0 -96 -30.5 -173.5t-97.5 -130t-163 -60.5q2 -97 42 -134.5t126 -37.5zM623 351q0 134 -65 209t-179 75t-179 -75t-65 -209q0 -126 61 -207 t183 -81q121 0 182.5 81t61.5 207z" />
<glyph unicode="R" horiz-adv-x="655" d="M632 83l26 -50q-4 -4 -12.5 -10.5t-35.5 -17.5t-56 -11q-47 0 -74 15t-47 59l-80 191q-24 -3 -52 -3h-130v-256h-88v700h240q236 0 236 -217q0 -156 -119 -205l73 -172q17 -43 56 -43q14 0 29.5 5t24.5 10zM171 334h132q88 0 127 37t39 112q0 72 -34.5 105.5t-109.5 33.5 h-154v-288z" />
<glyph unicode="S" horiz-adv-x="617" d="M569 640l-32 -78q-9 8 -26 19.5t-74 30.5t-120 19q-85 0 -126.5 -30.5t-41.5 -81.5q0 -56 41 -85t132 -46q136 -25 193 -65t57 -130t-66 -149t-195 -59q-57 0 -106 10t-78.5 24.5t-51.5 29t-31 24.5l-8 10l43 69q3 -4 9.5 -10t28.5 -21t47 -27t64.5 -21.5t82.5 -9.5 q79 0 122.5 31t43.5 85q0 55 -32.5 79t-135.5 46q-66 14 -108 28t-78.5 37t-53 57.5t-16.5 82.5q0 85 66.5 144.5t195.5 59.5q72 0 135.5 -18.5t91.5 -36.5z" />
<glyph unicode="T" horiz-adv-x="623" d="M356 0h-88v622h-262v78h611v-78h-261v-622z" />
<glyph unicode="U" horiz-adv-x="679" d="M516 291v409h87v-404q0 -168 -61.5 -238t-204.5 -73q-137 2 -199 73t-62 238v404h87v-409q0 -123 41 -175.5t133 -52.5q95 0 137 51t42 177z" />
<glyph unicode="V" horiz-adv-x="667" d="M381 0h-95l-271 700h105l213 -589l216 589h103z" />
<glyph unicode="W" horiz-adv-x="995" d="M751 0h-95l-159 562l-158 -562h-95l-223 700h103l166 -561l160 561h94l160 -561l166 561h103z" />
<glyph unicode="X" horiz-adv-x="635" d="M625 0h-110l-202 288l-197 -288h-105l249 352l-249 348h110l201 -287l197 287h105l-249 -351z" />
<glyph unicode="Y" horiz-adv-x="669" d="M378 0h-87v265l-273 435h110l207 -349l210 349h106l-273 -436v-264z" />
<glyph unicode="Z" horiz-adv-x="557" d="M516 0h-475v78l363 544h-363v78h475v-78l-367 -544h367v-78z" />
<glyph unicode="[" horiz-adv-x="303" d="M277 -297h-202v1064h202v-69h-132v-926h132v-69z" />
<glyph unicode="\" horiz-adv-x="382" d="M353 -248h-78l-247 948h78z" />
<glyph unicode="]" horiz-adv-x="303" d="M228 -297h-203v69h133v926h-133v69h203v-1064z" />
<glyph unicode="^" horiz-adv-x="492" d="M446 513h-68l-131 204l-133 -204h-68l157 264h88z" />
<glyph unicode="_" horiz-adv-x="470" d="M407 -63h-344v58h344v-58z" />
<glyph unicode="`" horiz-adv-x="229" d="M192 547h-74l-103 196h99z" />
<glyph unicode="a" horiz-adv-x="517" d="M501 73l15 -46q-40 -33 -99 -33t-71 53h-1q-67 -62 -164 -62q-68 0 -108 31.5t-40 93.5q0 131 239 131q33 0 70 -8v82q0 51 -28 74t-96 23q-32 0 -67 -7t-55 -14l-19 -7l-17 66q85 32 176 32q92 0 139.5 -38t47.5 -110v-249q0 -27 21 -27q10 0 24.5 4t23.5 8zM342 108v66 q-33 5 -69 5q-159 0 -159 -67q0 -59 84 -59t144 55z" />
<glyph unicode="b" horiz-adv-x="538" d="M64 55v669l81 26v-331q66 63 143 63q101 0 155.5 -70t54.5 -182q0 -107 -66 -176t-178 -69q-50 0 -97.5 17.5t-70.5 35.5zM145 350v-266q41 -29 114 -29t115.5 46t42.5 129q0 182 -146 182q-76 0 -126 -62z" />
<glyph unicode="c" horiz-adv-x="478" d="M427 111l25 -62q-7 -7 -21 -17.5t-60 -28.5t-97 -18q-113 0 -173.5 70.5t-60.5 177.5t60.5 178t174.5 71q46 0 85.5 -11.5t55.5 -22.5l17 -12l-31 -61q-4 4 -12 10t-40.5 16.5t-72.5 10.5q-75 0 -115 -50t-40 -129t39.5 -128.5t114.5 -49.5q42 0 80 14t54 28z" />
<glyph unicode="d" horiz-adv-x="571" d="M553 73l15 -46q-40 -33 -99 -33q-60 0 -72 56h-1q-65 -65 -146 -65q-100 0 -154.5 70.5t-54.5 181.5q0 107 64.5 176t175.5 69q58 0 112 -25v267l81 26v-665q0 -27 22 -27q10 0 24.5 4t23.5 8zM394 117v265q-42 30 -114 30q-73 0 -115.5 -46t-42.5 -129q0 -182 146 -182 q74 0 126 62z" />
<glyph unicode="e" horiz-adv-x="510" d="M464 203h-341q8 -67 47 -107.5t106 -40.5q42 0 79.5 14t54.5 28l17 14l25 -57q-3 -3 -8 -7.5t-22 -16.5t-36 -21t-49.5 -16.5t-61.5 -7.5q-114 0 -174.5 70t-60.5 178q0 107 59 178t171 71q56 0 98.5 -22.5t64 -57t31.5 -68t10 -64.5q0 -17 -2.5 -33.5t-5.5 -24.5z M123 267h275v9q0 57 -32.5 96.5t-95.5 39.5q-64 0 -102 -40t-45 -105z" />
<glyph unicode="f" horiz-adv-x="347" d="M179 0h-81v399h-76l18 69h58v96q0 187 159 187q28 0 54 -7.5t39 -15.5l12 -7l-28 -57q-27 15 -73 15q-42 0 -62 -26t-20 -86v-99h153v-69h-153v-399z" />
<glyph unicode="g" horiz-adv-x="501" d="M259 110l-26 1q-3 0 -8.5 -0.5t-17.5 -3.5t-22 -7.5t-17.5 -15t-7.5 -23.5q0 -22 23.5 -29t72.5 -7q223 0 223 -147q0 -72 -55.5 -113.5t-165.5 -41.5q-109 0 -166.5 39t-57.5 106q0 83 85 119q-38 22 -38 69q0 49 58 76q-99 46 -99 163q0 80 54.5 133.5t163.5 53.5 q39 0 82 -12q66 6 66 166h80q0 -151 -83 -199q64 -51 64 -142q0 -84 -54.5 -134.5t-153.5 -50.5zM386 295q0 49 -33.5 83t-95.5 34q-67 0 -101.5 -34t-34.5 -83q0 -115 138 -115q62 0 94.5 29.5t32.5 85.5zM180 -42q-65 -24 -65 -80q0 -85 143 -85q140 0 140 85 q0 77 -142 77q-40 0 -76 3z" />
<glyph unicode="h" horiz-adv-x="555" d="M540 73l15 -46q-40 -33 -100 -33q-40 0 -57.5 20.5t-17.5 68.5v212q0 63 -21 90t-71 27q-77 0 -140 -74v-338h-81v724l81 26v-347l5 5l9 9t11.5 11t15 12.5t18 12t21.5 11.5t23.5 9t27 6.5t29.5 2.5q76 0 114.5 -46t38.5 -132v-219q0 -27 21 -27q11 0 25.5 4t23.5 8z" />
<glyph unicode="i" horiz-adv-x="215" d="M148 0h-81v468h81v-468zM163 611q0 -26 -16 -43t-41 -17t-41 17t-16 43t16 43t41 17t41 -17t16 -43z" />
<glyph unicode="j" horiz-adv-x="215" d="M41 -270l-37 47q7 5 17.5 15t28 44.5t17.5 73.5v558h81v-556q0 -41 -11 -74.5t-27 -52.5t-31.5 -32.5t-26.5 -18.5zM163 611q0 -26 -16 -43t-41 -17t-41 17t-16 43t16 43t41 17t41 -17t16 -43z" />
<glyph unicode="k" horiz-adv-x="541" d="M516 77l21 -42q-4 -5 -11 -11.5t-32 -18t-53 -11.5q-36 0 -57 13.5t-42 47.5l-68 128q-18 -2 -26 -2h-100v-181h-81v724l81 26v-501h97q61 0 90 52.5t29 166.5h81q0 -205 -100 -264l67 -119q17 -27 45 -27q12 0 27 5t24 9z" />
<glyph unicode="l" horiz-adv-x="263" d="M251 76l15 -46q-49 -36 -121 -36q-43 0 -61.5 20.5t-18.5 68.5v641l81 26v-660q0 -32 29 -32q14 0 33 4.5t31 9.5z" />
<glyph unicode="m" horiz-adv-x="854" d="M839 73l15 -46q-40 -33 -100 -33q-40 0 -57.5 20.5t-17.5 68.5v212q0 63 -21 90t-71 27q-70 0 -131 -64q3 -21 3 -44v-304h-81v295q0 63 -21 90t-71 27q-77 0 -140 -74v-338h-81v448l81 26v-71l5 5l9 9t11.5 11t15 12.5t18 12t21.5 11.5t23.5 9t27 6.5t29.5 2.5 q104 0 138 -87q2 7 20 25.5t58.5 40t84.5 21.5q76 0 114.5 -46t38.5 -132v-219q0 -27 21 -27q11 0 25.5 4t23.5 8z" />
<glyph unicode="n" horiz-adv-x="553" d="M538 73l15 -46q-40 -33 -99 -33q-41 0 -58.5 20.5t-17.5 68.5v212q0 60 -21 86t-71 26q-71 0 -140 -69v-338h-81v448l81 26v-71l5 5l9 9t11.5 11t15 12.5t18 12t21.5 11.5t23.5 9t27 6.5t29.5 2.5q76 0 114.5 -46t38.5 -132v-219q0 -27 21 -27q11 0 25.5 4t23.5 8z" />
<glyph unicode="o" d="M509 233q0 -107 -60.5 -177.5t-173.5 -70.5q-114 0 -174.5 70.5t-60.5 177.5t60.5 178t174.5 71t174 -71t60 -178zM275 55q74 0 113.5 49.5t39.5 128.5t-39.5 129t-113.5 50t-113.5 -50t-39.5 -129t39.5 -128.5t113.5 -49.5z" />
<glyph unicode="p" horiz-adv-x="541" d="M146 -263h-81v711l81 26v-62q57 70 144 70q101 0 155 -68.5t54 -183.5q0 -113 -61.5 -179t-170.5 -66q-66 0 -121 24v-272zM146 350v-267q42 -28 122 -28q70 0 110 45.5t40 129.5q0 182 -146 182q-76 0 -126 -62z" />
<glyph unicode="q" horiz-adv-x="538" d="M473 -263h-81v310q-65 -62 -142 -62q-100 0 -155 70.5t-55 181.5q0 107 66 176t179 69q23 0 45.5 -4t41 -10t35 -13.5t28.5 -15t20.5 -14t12.5 -10.5l5 -4v-674zM393 116v266q-40 30 -113 30q-74 0 -116 -46t-42 -129q0 -182 145 -182q72 0 126 61z" />
<glyph unicode="r" horiz-adv-x="368" d="M146 0h-81v448l81 26v-95l4 6q4 6 7 10l9 12t11.5 14t13.5 14t16 14.5t18.5 12.5t20.5 10.5t22.5 7t24.5 2.5q21 0 37.5 -4t23.5 -8l6 -4l-22 -71q-15 12 -58 12q-71 0 -134 -99v-308z" />
<glyph unicode="s" horiz-adv-x="470" d="M425 432l-30 -59q-6 4 -17 10.5t-48.5 17.5t-79.5 11q-58 0 -89 -20t-31 -54q0 -43 56 -60q16 -5 66 -14q38 -7 64 -15t55.5 -24t44.5 -43.5t15 -66.5q0 -61 -51 -95.5t-145 -34.5q-58 0 -107.5 15t-70.5 30l-21 15l28 63q7 -6 21 -15t58 -23.5t91 -14.5q53 0 83.5 17 t30.5 43q0 34 -26 48.5t-80 24.5q-5 1 -28.5 5.5t-31 6.5t-28.5 7.5t-29 10.5t-24 13.5t-23 18t-15.5 22.5t-12 29.5t-3.5 36.5q0 60 50 102t152 42q50 0 94 -12.5t63 -25.5z" />
<glyph unicode="t" horiz-adv-x="368" d="M327 82l28 -57q-46 -40 -112 -40q-145 0 -145 157v257h-76l18 69h58v116l81 26v-142h153v-69h-153v-260q0 -43 16.5 -62.5t53.5 -19.5q22 0 41.5 6.5t27.5 12.5z" />
<glyph unicode="u" horiz-adv-x="553" d="M535 73l15 -46q-40 -33 -99 -33q-61 0 -72 58h-1q-69 -67 -162 -67q-76 0 -115 46t-39 132v305h81v-296q0 -62 21.5 -89.5t70.5 -27.5q77 0 140 60v333l81 26v-389q0 -27 21 -27q11 0 25.5 4t23.5 8z" />
<glyph unicode="v" horiz-adv-x="499" d="M291 0h-84l-188 468h89l141 -383l141 383h89z" />
<glyph unicode="w" horiz-adv-x="731" d="M549 0h-89l-97 370l-91 -370h-90l-159 468h88l114 -382l95 382h84l101 -386l116 386h88z" />
<glyph unicode="x" horiz-adv-x="486" d="M463 0h-105l-116 174l-116 -174h-105l165 218l-168 250h104l120 -187l124 187h105l-174 -240z" />
<glyph unicode="y" horiz-adv-x="496" d="M186 -263h-75l104 263h-9l-186 468h87l143 -382l139 382h88z" />
<glyph unicode="z" horiz-adv-x="482" d="M440 0h-397v69l295 330h-295v69h397v-69l-290 -330h290v-69z" />
<glyph unicode="{" horiz-adv-x="284" d="M253 -214v-69q-162 0 -162 173v251q0 62 -49 62h-10v70h10q21 0 35 15t14 48v244q0 170 162 170v-69q-92 0 -92 -104v-261q0 -26 -8 -44t-15.5 -24t-14.5 -7q38 -19 38 -75v-276q0 -56 23.5 -80t68.5 -24z" />
<glyph unicode="|" horiz-adv-x="219" d="M144 -297h-69v1061h69v-1061z" />
<glyph unicode="}" horiz-adv-x="284" d="M31 -283v69q45 0 68.5 24t23.5 80v276q0 56 37 75q-6 1 -13.5 7t-15.5 24t-8 44v261q0 104 -92 104v69q162 0 162 -170v-244q0 -33 14 -48t35 -15h10v-70h-10q-49 0 -49 -62v-251q0 -173 -162 -173z" />
<glyph unicode="~" horiz-adv-x="451" d="M354 393l45 -27q-1 -4 -3 -9.5t-10.5 -20.5t-19.5 -26.5t-30 -21t-42 -9.5q-32 0 -68 30t-57 30q-17 0 -35 -12.5t-28 -24.5l-9 -12l-43 36q1 3 4 8.5t13 18.5t22.5 23t32.5 18.5t43 8.5q35 0 73.5 -30.5t53.5 -30.5q16 0 30.5 13t21.5 25z" />
<glyph unicode="&#xa1;" horiz-adv-x="225" d="M171 420q0 -26 -16.5 -44t-41.5 -18t-41.5 18t-16.5 44t16.5 44t41.5 18t41.5 -18t16.5 -44zM162 -233h-100l20 517h63z" />
<glyph unicode="&#xa2;" horiz-adv-x="470" d="M416 111l25 -62q-7 -7 -21 -17.5t-60 -28.5t-97 -18q-113 0 -173.5 70.5t-60.5 177.5t60 178t174 71q47 0 86.5 -11.5t56.5 -22.5l16 -12l-31 -61q-4 4 -12 10t-40.5 16.5t-73.5 10.5q-74 0 -114 -50t-40 -129t39.5 -128.5t114.5 -49.5q42 0 79.5 14t54.5 28zM300 525 h-59l-10 175h79zM310 -242h-79l10 175h59z" />
<glyph unicode="&#xa3;" horiz-adv-x="570" d="M431 233h-174q2 -20 2 -31q0 -72 -57 -124h325v-78h-433v78q9 6 21.5 16.5t33.5 43t21 64.5q0 11 -4 31h-126v78h96q-21 42 -29.5 61t-19.5 61.5t-11 83.5q0 84 60 140t168 56q61 0 117 -18.5t81 -36.5l25 -19l-40 -68q-8 7 -22 17.5t-61.5 28.5t-97.5 18q-69 0 -104 -35 t-35 -83q0 -27 3.5 -51.5t12 -48t14 -36.5t18.5 -38t16 -32h200v-78z" />
<glyph unicode="&#xa5;" horiz-adv-x="680" d="M131 151v55h165v59l-272 435h109l208 -349l209 349h106l-272 -436v-58h154v-55h-154v-151h-88v151h-165zM246 294l-39 55h-103v-55h142zM434 294l39 55h103v-55h-142z" />
<glyph unicode="&#xa6;" horiz-adv-x="222" d="M145 336h-68v428h68v-428zM145 -297h-68v460h68v-460z" />
<glyph unicode="&#xa7;" horiz-adv-x="624" d="M575 193q0 -90 -64 -147q64 -43 64 -135q0 -90 -66 -149t-195 -59q-57 0 -106 10t-78.5 24.5t-51.5 29t-30 24.5l-9 10l43 69q3 -4 9.5 -10t28.5 -21t47 -27t64.5 -21.5t82.5 -9.5q79 0 122.5 31t43.5 85q0 55 -32.5 79t-135.5 46q-66 14 -108 28t-78.5 37t-53 57.5 t-16.5 82.5q0 88 66 144q-66 48 -66 138q0 85 66.5 144.5t195.5 59.5q72 0 135.5 -18.5t90.5 -36.5l28 -18l-32 -78q-9 8 -26 19.5t-74 30.5t-120 19q-85 0 -126.5 -30.5t-41.5 -81.5q0 -56 41 -85t132 -46q136 -25 193 -65t57 -130zM312 304q-58 11 -100 25 q-60 -29 -60 -92q0 -56 41 -85t132 -46q59 -12 96 -22q59 31 59 95q0 55 -33 79.5t-135 45.5z" />
<glyph unicode="&#xa8;" horiz-adv-x="299" d="M121 604q0 -23 -15 -39.5t-37 -16.5t-36.5 16.5t-14.5 39.5t14.5 39.5t36.5 16.5t37 -16.5t15 -39.5zM278 604q0 -23 -15 -39.5t-37 -16.5t-36.5 16t-14.5 40t14.5 40t36.5 16t37 -16.5t15 -39.5z" />
<glyph unicode="&#xa9;" horiz-adv-x="633" d="M426 331l27 -38q-6 -6 -16.5 -15t-45 -23.5t-71.5 -14.5q-80 0 -120.5 52t-40.5 133t42.5 130t118.5 49q34 0 62.5 -10t39.5 -20l12 -11l-26 -40q-33 31 -88 31q-108 0 -108 -129q0 -58 27 -96.5t81 -38.5q31 0 57.5 10t37.5 20zM581 428q0 -60 -16 -112.5t-47 -94.5 t-82 -66t-117 -24q-131 0 -199 85t-68 212q0 125 68.5 205t198.5 80q128 0 195 -80t67 -205zM319 180q104 0 158 70t54 178q0 104 -56.5 170t-155.5 66q-101 0 -159 -65t-58 -171q0 -110 55.5 -179t161.5 -69z" />
<glyph unicode="&#xaa;" horiz-adv-x="362" d="M302 511l6 -31q-17 -11 -43 -11q-33 0 -39 27v1q-31 -33 -79 -33q-39 0 -59.5 18t-20.5 46q0 37 27.5 54t90.5 17q19 0 39 -2v31q0 22 -13 32t-47 10q-19 0 -35.5 -3t-23.5 -7l-7 -3l-15 37q30 19 82 19t76 -20.5t24 -64.5v-105q0 -18 13 -18zM299 381h-238v47h238v-47z M224 534v28q-15 3 -38 3q-77 0 -77 -34q0 -27 39 -27q41 0 76 30z" />
<glyph unicode="&#xab;" horiz-adv-x="501" d="M274 49l-48 -51l-183 188v60l183 188l46 -50l-142 -168zM458 49l-48 -51l-183 188v60l183 188l46 -50l-142 -168z" />
<glyph unicode="&#xac;" horiz-adv-x="512" d="M444 110h-82v128h-298v78h380v-206z" />
<glyph unicode="&#xad;" horiz-adv-x="379" d="M316 238h-253v78h253v-78z" />
<glyph unicode="&#xae;" horiz-adv-x="633" d="M581 428q0 -60 -16 -112.5t-47 -94.5t-82 -66t-117 -24q-131 0 -199 85t-68 212q0 125 68.5 205t198.5 80q128 0 195 -80t67 -205zM319 180q104 0 158 70t54 178q0 104 -56.5 170t-155.5 66q-101 0 -159 -65t-58 -171q0 -110 55.5 -179t161.5 -69zM468 300l15 -38 q-19 -16 -45 -16q-27 0 -43 8.5t-27 32.5l-43 94q-8 -1 -22 -1h-50v-131h-53v350h119q115 0 115 -108q0 -77 -57 -100l35 -74q12 -25 31 -25q8 0 14 2t9 4zM253 429h55q39 0 56 15t17 47q0 59 -62 59h-66v-121z" />
<glyph unicode="&#xaf;" horiz-adv-x="240" d="M218 548h-181v63h181v-63z" />
<glyph unicode="&#xb0;" horiz-adv-x="363" d="M317 616q0 -67 -36 -107.5t-99 -40.5t-99.5 41t-36.5 107t36 106t100 40t99.5 -39.5t35.5 -106.5zM182 524q36 0 56.5 25t20.5 67q0 41 -20.5 65t-56.5 24t-56.5 -24t-20.5 -65q0 -42 20.5 -67t56.5 -25z" />
<glyph unicode="&#xb1;" horiz-adv-x="439" d="M375 316h-118v-134h-74v134h-120v78h120v134h74v-134h118v-78zM375 73h-312v78h312v-78z" />
<glyph unicode="&#xb2;" horiz-adv-x="358" d="M295 356h-230v51l87 72q6 5 23.5 19.5t24.5 21.5t18 20t15 26t4 29q0 26 -19.5 43.5t-51.5 17.5q-25 0 -48 -8t-33 -16l-10 -9l-26 45q5 5 15 12.5t40.5 20t62.5 12.5q60 0 94.5 -33t34.5 -85q0 -15 -2 -28t-9 -26t-10.5 -20.5t-16 -21t-16 -17t-20 -18.5t-18.5 -17 l-39 -33h130v-58z" />
<glyph unicode="&#xb3;" horiz-adv-x="358" d="M148 506v57q90 0 90 49q0 21 -18 32.5t-48 11.5q-24 0 -46.5 -8t-33.5 -16l-10 -9l-26 45q5 5 15 12.5t40.5 20t60.5 12.5q57 0 91 -25.5t34 -65.5q0 -73 -66 -86q77 -12 77 -87q0 -45 -36.5 -73t-97.5 -28q-36 0 -68 13.5t-46 26.5l-15 14l29 44q4 -5 11.5 -11.5t33 -18 t54.5 -11.5q76 0 76 44q0 57 -101 57z" />
<glyph unicode="&#xb4;" horiz-adv-x="278" d="M124 547h-74l79 196h99z" />
<glyph unicode="&#xb5;" horiz-adv-x="512" d="M542 73l15 -46q-40 -33 -99 -33q-61 0 -72 58h-1q-69 -67 -162 -67q-43 0 -73 15v-263h-81v731h81v-296q0 -62 21.5 -89.5t70.5 -27.5q77 0 140 60v333l81 26v-389q0 -27 21 -27q11 0 25.5 4t23.5 8z" />
<glyph unicode="&#xb6;" horiz-adv-x="637" d="M378 0h-87v228h-19q-115 0 -177.5 59t-62.5 178t62.5 177t177.5 58h106v-700zM553 0h-87v700h87v-700z" />
<glyph unicode="&#xb7;" horiz-adv-x="236" d="M176 314q0 -26 -16.5 -44t-41.5 -18t-42 18t-17 44t17 44t42 18t41.5 -18t16.5 -44z" />
<glyph unicode="&#xb8;" horiz-adv-x="226" d="M36 -156l19 36q17 -16 51 -16q32 0 32 29q0 31 -74 31l25 77h50l-15 -44q26 -2 45 -17.5t19 -46.5q0 -34 -21.5 -54.5t-60.5 -20.5q-19 0 -36.5 6.5t-25.5 13.5z" />
<glyph unicode="&#xb9;" horiz-adv-x="300" d="M232 356h-60v284l-122 -80l-28 47q149 99 150 99h60v-350z" />
<glyph unicode="&#xba;" horiz-adv-x="367" d="M299 587q0 -53 -30.5 -88t-84.5 -35t-84.5 35t-30.5 88q0 55 29 90.5t86 35.5q56 0 85.5 -35.5t29.5 -90.5zM256 587q0 82 -72 82t-72 -82q0 -36 18.5 -57.5t53.5 -21.5t53.5 21.5t18.5 57.5zM302 381h-238v47h238v-47z" />
<glyph unicode="&#xbb;" horiz-adv-x="501" d="M459 186l-183 -188l-49 51l144 167l-142 168l47 50l183 -188v-60zM274 186l-183 -188l-48 51l144 167l-142 168l46 50l183 -188v-60z" />
<glyph unicode="&#xbc;" horiz-adv-x="646" d="M573 -3h-57v76h-162v56l121 215h61l-118 -215h98v84h57v-84h39v-56h-39v-76zM236 356h-60v284l-122 -80l-27 47q148 99 149 99h60v-350zM132 -15h-72l448 728h72z" />
<glyph unicode="&#xbd;" horiz-adv-x="671" d="M236 356h-60v284l-122 -80l-27 47q148 99 149 99h60v-350zM132 -15h-72l448 728h72zM625 0h-230v51l88 72q5 4 23 19t24.5 22t17.5 20t15 26t4 29q0 26 -19.5 43.5t-51.5 17.5q-25 0 -48 -8t-33 -16l-10 -9l-26 45q5 5 15 12.5t41 20t62 12.5q60 0 94.5 -33t34.5 -85 q0 -15 -2 -28t-9 -26t-10.5 -20.5t-16 -21t-16 -17t-20 -18.5t-18.5 -17l-39 -33h130v-58z" />
<glyph unicode="&#xbe;" horiz-adv-x="657" d="M173 -15h-73l448 728h73zM134 506v57q89 0 89 49q0 44 -66 44q-24 0 -46 -8t-33 -16l-10 -9l-26 45q5 5 15 12.5t40.5 20t60.5 12.5q57 0 90.5 -25.5t33.5 -65.5q0 -73 -65 -86q77 -12 77 -87q0 -45 -36.5 -73t-97.5 -28q-36 0 -68 13.5t-46 26.5l-15 14l29 44 q4 -5 11.5 -11.5t33 -18t54.5 -11.5q76 0 76 44q0 57 -101 57zM577 -3h-57v76h-162v56l121 215h60l-117 -215h98v84h57v-84h39v-56h-39v-76z" />
<glyph unicode="&#xbf;" horiz-adv-x="498" d="M437 -101l40 -68q-3 -3 -9.5 -8.5t-28 -18.5t-45.5 -23t-61 -18.5t-76 -8.5q-105 0 -164 60t-59 156q0 52 19.5 98.5t47.5 75.5t56 50t47 30l20 9v78h85v-116q-8 -2 -20 -7t-44 -23.5t-56.5 -42t-44.5 -64.5t-20 -88q0 -61 36.5 -99.5t96.5 -38.5q48 0 93 17t66 33z M328 420q0 -26 -16.5 -44t-41.5 -18q-24 0 -40.5 18t-16.5 44t16.5 44t40.5 18q25 0 41.5 -18t16.5 -44z" />
<glyph unicode="&#xc0;" horiz-adv-x="636" d="M618 0h-92l-66 187h-284l-66 -187h-92l253 700h94zM430 265l-112 320l-113 -320h225zM347 754h-74l-103 196h99z" />
<glyph unicode="&#xc1;" horiz-adv-x="636" d="M618 0h-92l-66 187h-284l-66 -187h-92l253 700h94zM430 265l-112 320l-113 -320h225zM358 752h-74l79 196h99z" />
<glyph unicode="&#xc2;" horiz-adv-x="636" d="M462 754h-72l-72 122l-73 -122h-71l95 196h97zM618 0h-92l-66 187h-284l-66 -187h-92l253 700h94zM430 265l-112 320l-113 -320h225z" />
<glyph unicode="&#xc3;" horiz-adv-x="636" d="M618 0h-92l-66 187h-284l-66 -187h-92l253 700h94zM430 265l-112 320l-113 -320h225zM443 868l46 -27q-1 -4 -3 -9.5t-10.5 -20.5t-19.5 -26.5t-30 -21t-42 -9.5q-32 0 -68 30t-57 30q-18 0 -36 -12t-27 -24l-9 -13l-43 36q1 3 4 8.5t13 18.5t22.5 23t32.5 18.5t43 8.5 q27 0 51 -15t42.5 -30.5t32.5 -15.5q16 0 30.5 12.5t20.5 25.5z" />
<glyph unicode="&#xc4;" horiz-adv-x="636" d="M290 809q0 -23 -15 -39.5t-37 -16.5t-36.5 16.5t-14.5 39.5t14.5 39.5t36.5 16.5t37 -16.5t15 -39.5zM447 809q0 -23 -15 -39.5t-37 -16.5t-36.5 16t-14.5 40t14.5 40t36.5 16t37 -16.5t15 -39.5zM618 0h-92l-66 187h-284l-66 -187h-92l253 700h94zM430 265l-112 320 l-113 -320h225z" />
<glyph unicode="&#xc5;" horiz-adv-x="636" d="M618 0h-92l-66 187h-284l-66 -187h-92l253 700h94zM430 265l-112 320l-113 -320h225zM317 754q-29 0 -47 19t-18 50t18 50t47 19t46.5 -19t17.5 -50t-17.5 -50t-46.5 -19zM343 823q0 30 -26 30q-27 0 -27 -30t27 -30q26 0 26 30z" />
<glyph unicode="&#xc6;" horiz-adv-x="968" d="M926 0h-477v187h-241l-102 -187h-92l392 700h520v-78h-390v-241h318v-78h-318v-225h390v-78zM449 265v355l-193 -355h193z" />
<glyph unicode="&#xc7;" horiz-adv-x="673" d="M305 -156l19 36q17 -16 51 -16q32 0 32 29q0 31 -74 31l20 63q-157 13 -232 114t-75 255q0 162 92 259.5t257 97.5q69 0 125 -16.5t77 -32.5l21 -17l-40 -70q-6 6 -19 16t-60 26t-104 16q-121 0 -190 -74t-69 -205q0 -130 64.5 -211.5t195.5 -81.5q38 0 76 8t64.5 19.5 t48 23.5t31.5 20l11 8l28 -71q-4 -3 -11 -9t-31 -20.5t-51.5 -25.5t-70.5 -20.5t-89 -10.5l-9 -28q26 -2 45 -17.5t19 -46.5q0 -34 -21.5 -54.5t-60.5 -20.5q-19 0 -36.5 6.5t-25.5 13.5z" />
<glyph unicode="&#xc8;" horiz-adv-x="602" d="M560 0h-477v700h477v-78h-389v-241h317v-78h-317v-225h389v-78zM375 754h-74l-103 196h99z" />
<glyph unicode="&#xc9;" horiz-adv-x="602" d="M350 752h-74l79 196h99zM560 0h-477v700h477v-78h-389v-241h317v-78h-317v-225h389v-78z" />
<glyph unicode="&#xca;" horiz-adv-x="602" d="M475 753h-72l-72 122l-73 -122h-71l95 196h97zM560 0h-477v700h477v-78h-389v-241h317v-78h-317v-225h389v-78z" />
<glyph unicode="&#xcb;" horiz-adv-x="602" d="M305 810q0 -23 -15 -39.5t-37 -16.5t-36.5 16.5t-14.5 39.5t14.5 39.5t36.5 16.5t37 -16.5t15 -39.5zM462 810q0 -23 -15 -39.5t-37 -16.5t-36.5 16t-14.5 40t14.5 40t36.5 16t37 -16.5t15 -39.5zM560 0h-477v700h477v-78h-389v-241h317v-78h-317v-225h389v-78z" />
<glyph unicode="&#xcc;" horiz-adv-x="254" d="M171 0h-88v700h88v-700zM164 754h-74l-103 196h99z" />
<glyph unicode="&#xcd;" horiz-adv-x="254" d="M171 0h-88v700h88v-700zM162 754h-74l79 196h99z" />
<glyph unicode="&#xce;" horiz-adv-x="254" d="M271 754h-72l-72 122l-73 -122h-71l95 196h97zM171 0h-88v700h88v-700z" />
<glyph unicode="&#xcf;" horiz-adv-x="254" d="M101 810q0 -23 -15 -39.5t-37 -16.5t-36.5 16.5t-14.5 39.5t14.5 39.5t36.5 16.5t37 -16.5t15 -39.5zM258 810q0 -23 -15 -39.5t-37 -16.5t-36.5 16t-14.5 40t14.5 40t36.5 16t37 -16.5t15 -39.5zM171 0h-88v700h88v-700z" />
<glyph unicode="&#xd0;" horiz-adv-x="700" d="M312 0h-225v300h-58v73h58v327h225q165 0 252.5 -90.5t87.5 -263.5q0 -170 -90 -258t-250 -88zM175 78h122q131 -1 198.5 63t67.5 205q0 142 -67.5 209t-201.5 67h-119v-249h88v-73h-88v-222z" />
<glyph unicode="&#xd1;" horiz-adv-x="686" d="M472 868l46 -27q-1 -4 -3 -9.5t-10.5 -20.5t-19.5 -26.5t-30 -21t-42 -9.5q-32 0 -68 30t-57 30q-18 0 -36 -12t-27 -24l-9 -13l-43 36q1 3 4 8.5t13 18.5t22.5 23t32.5 18.5t43 8.5q27 0 51 -15t42.5 -30.5t32.5 -15.5q16 0 30.5 12.5t21.5 25.5zM603 0h-73l-359 535 v-535h-88v700h76l357 -540v540h87v-700z" />
<glyph unicode="&#xd2;" horiz-adv-x="756" d="M419 754h-74l-103 196h99zM711 351q0 -76 -20 -141t-59.5 -116t-104.5 -80t-149 -29q-111 0 -188 51t-111 131.5t-34 183.5q0 163 89 262.5t244 99.5q154 0 243.5 -99.5t89.5 -262.5zM622 351q0 134 -65 209t-179 75t-179 -75t-65 -209q0 -126 61 -207t183 -81 q121 0 182.5 81t61.5 207z" />
<glyph unicode="&#xd3;" horiz-adv-x="756" d="M409 754h-74l79 196h99zM711 351q0 -76 -20 -141t-59.5 -116t-104.5 -80t-149 -29q-111 0 -188 51t-111 131.5t-34 183.5q0 163 89 262.5t244 99.5q154 0 243.5 -99.5t89.5 -262.5zM622 351q0 134 -65 209t-179 75t-179 -75t-65 -209q0 -126 61 -207t183 -81 q121 0 182.5 81t61.5 207z" />
<glyph unicode="&#xd4;" horiz-adv-x="756" d="M522 753h-72l-72 122l-73 -122h-71l95 196h97zM711 351q0 -76 -20 -141t-59.5 -116t-104.5 -80t-149 -29q-111 0 -188 51t-111 131.5t-34 183.5q0 163 89 262.5t244 99.5q154 0 243.5 -99.5t89.5 -262.5zM622 351q0 134 -65 209t-179 75t-179 -75t-65 -209 q0 -126 61 -207t183 -81q121 0 182.5 81t61.5 207z" />
<glyph unicode="&#xd5;" horiz-adv-x="756" d="M711 351q0 -76 -20 -141t-59.5 -116t-104.5 -80t-149 -29q-111 0 -188 51t-111 131.5t-34 183.5q0 163 89 262.5t244 99.5q154 0 243.5 -99.5t89.5 -262.5zM622 351q0 134 -65 209t-179 75t-179 -75t-65 -209q0 -126 61 -207t183 -81q121 0 182.5 81t61.5 207zM505 868 l46 -27q-1 -4 -3 -9.5t-10.5 -20.5t-19.5 -26.5t-30 -21t-42 -9.5q-32 0 -68 30t-57 30q-18 0 -36 -12t-27 -24l-9 -13l-43 36q1 3 4 8.5t13 18.5t22.5 23t32.5 18.5t43 8.5q27 0 51 -15t42.5 -30.5t32.5 -15.5q16 0 30.5 12.5t20.5 25.5z" />
<glyph unicode="&#xd6;" horiz-adv-x="756" d="M350 810q0 -23 -15 -39.5t-37 -16.5t-36.5 16.5t-14.5 39.5t14.5 39.5t36.5 16.5t37 -16.5t15 -39.5zM507 810q0 -23 -15 -39.5t-37 -16.5t-36.5 16t-14.5 40t14.5 40t36.5 16t37 -16.5t15 -39.5zM711 351q0 -76 -20 -141t-59.5 -116t-104.5 -80t-149 -29q-111 0 -188 51 t-111 131.5t-34 183.5q0 163 89 262.5t244 99.5q154 0 243.5 -99.5t89.5 -262.5zM622 351q0 134 -65 209t-179 75t-179 -75t-65 -209q0 -126 61 -207t183 -81q121 0 182.5 81t61.5 207z" />
<glyph unicode="&#xd7;" horiz-adv-x="416" d="M303 127l-95 102l-95 -102l-54 55l95 102l-95 102l54 55l95 -102l95 102l54 -55l-95 -102l95 -102z" />
<glyph unicode="&#xd8;" horiz-adv-x="756" d="M711 351q0 -76 -20 -141t-59.5 -116t-104.5 -80t-149 -29q-23 0 -59 4l-36 -138h-70l40 153q-104 36 -156 129t-52 218q0 163 89 262.5t244 99.5q27 0 59 -5l24 91h70l-28 -107q99 -35 153.5 -125t54.5 -216zM134 351q0 -95 34.5 -166.5t104.5 -101.5l144 549 q-18 3 -39 3q-114 0 -179 -75t-65 -209zM622 351q0 99 -36 166.5t-103 97.5l-144 -550q24 -2 39 -2q121 0 182.5 81t61.5 207z" />
<glyph unicode="&#xd9;" horiz-adv-x="679" d="M516 291v409h87v-404q0 -168 -61.5 -238t-204.5 -73q-137 2 -199 73t-62 238v404h87v-409q0 -123 41 -175.5t133 -52.5q95 0 137 51t42 177zM370 754h-74l-103 196h99z" />
<glyph unicode="&#xda;" horiz-adv-x="679" d="M359 754h-74l79 196h99zM516 291v409h87v-404q0 -168 -61.5 -238t-204.5 -73q-137 2 -199 73t-62 238v404h87v-409q0 -123 41 -175.5t133 -52.5q95 0 137 51t42 177z" />
<glyph unicode="&#xdb;" horiz-adv-x="679" d="M481 754h-72l-72 122l-73 -122h-71l95 196h97zM516 291v409h87v-404q0 -168 -61.5 -238t-204.5 -73q-137 2 -199 73t-62 238v404h87v-409q0 -123 41 -175.5t133 -52.5q95 0 137 51t42 177z" />
<glyph unicode="&#xdc;" horiz-adv-x="679" d="M310 810q0 -23 -15 -39.5t-37 -16.5t-36.5 16.5t-14.5 39.5t14.5 39.5t36.5 16.5t37 -16.5t15 -39.5zM467 810q0 -23 -15 -39.5t-37 -16.5t-36.5 16t-14.5 40t14.5 40t36.5 16t37 -16.5t15 -39.5zM516 291v409h87v-404q0 -168 -61.5 -238t-204.5 -73q-137 2 -199 73 t-62 238v404h87v-409q0 -123 41 -175.5t133 -52.5q95 0 137 51t42 177z" />
<glyph unicode="&#xdd;" horiz-adv-x="669" d="M378 0h-87v265l-273 435h110l207 -349l210 349h106l-273 -436v-264zM359 712h-74l79 196h99z" />
<glyph unicode="&#xde;" horiz-adv-x="644" d="M361 103h-190v-103h-88v700h88v-105h190q118 0 183 -64t65 -191q0 -119 -65 -178t-183 -59zM171 181h190q80 0 119 38.5t39 120.5q0 177 -158 177h-190v-336z" />
<glyph unicode="&#xdf;" horiz-adv-x="637" d="M178 0h-81v399h-75l18 69h57v101q0 89 50 135.5t133 46.5q90 0 143.5 -42t53.5 -125q0 -41 -11.5 -73.5t-28 -53t-33 -38t-28 -35t-11.5 -36.5q0 -21 25.5 -36.5t61.5 -28t72 -29.5t61.5 -51t25.5 -83q0 -63 -46.5 -99t-130.5 -36q-35 0 -66 7t-51 16.5t-34.5 19.5 t-20.5 17l-7 7l25 56l5.5 -5.5t17.5 -13t30 -16.5t42.5 -12.5t56.5 -5.5q45 0 70 18t25 47q0 34 -25 56t-60.5 34.5t-71.5 26t-61 41.5t-25 70q0 31 17.5 60t38.5 49.5t38.5 53.5t17.5 72q0 47 -32 71t-83 24q-47 0 -75 -28t-28 -79v-571z" />
<glyph unicode="&#xe0;" horiz-adv-x="517" d="M501 73l15 -46q-40 -33 -99 -33t-71 53h-1q-67 -62 -164 -62q-68 0 -108 31.5t-40 93.5q0 131 239 131q33 0 70 -8v82q0 51 -28 74t-96 23q-32 0 -67 -7t-55 -14l-19 -7l-17 66q85 32 176 32q92 0 139.5 -38t47.5 -110v-249q0 -27 21 -27q10 0 24.5 4t23.5 8zM342 108v66 q-33 5 -69 5q-159 0 -159 -67q0 -59 84 -59t144 55zM299 547h-74l-103 196h99z" />
<glyph unicode="&#xe1;" horiz-adv-x="517" d="M501 73l15 -46q-40 -33 -99 -33t-71 53h-1q-67 -62 -164 -62q-68 0 -108 31.5t-40 93.5q0 131 239 131q33 0 70 -8v82q0 51 -28 74t-96 23q-32 0 -67 -7t-55 -14l-19 -7l-17 66q85 32 176 32q92 0 139.5 -38t47.5 -110v-249q0 -27 21 -27q10 0 24.5 4t23.5 8zM342 108v66 q-33 5 -69 5q-159 0 -159 -67q0 -59 84 -59t144 55zM268 548h-74l79 196h99z" />
<glyph unicode="&#xe2;" horiz-adv-x="517" d="M391 546h-72l-72 122l-73 -122h-71l95 196h97zM501 73l15 -46q-40 -33 -99 -33t-71 53h-1q-67 -62 -164 -62q-68 0 -108 31.5t-40 93.5q0 131 239 131q33 0 70 -8v82q0 51 -28 74t-96 23q-32 0 -67 -7t-55 -14l-19 -7l-17 66q85 32 176 32q92 0 139.5 -38t47.5 -110v-249 q0 -27 21 -27q10 0 24.5 4t23.5 8zM342 108v66q-33 5 -69 5q-159 0 -159 -67q0 -59 84 -59t144 55z" />
<glyph unicode="&#xe3;" horiz-adv-x="517" d="M501 73l15 -46q-40 -33 -99 -33t-71 53h-1q-67 -62 -164 -62q-68 0 -108 31.5t-40 93.5q0 131 239 131q33 0 70 -8v82q0 51 -28 74t-96 23q-32 0 -67 -7t-55 -14l-19 -7l-17 66q85 32 176 32q92 0 139.5 -38t47.5 -110v-249q0 -27 21 -27q10 0 24.5 4t23.5 8zM342 108v66 q-33 5 -69 5q-159 0 -159 -67q0 -59 84 -59t144 55zM373 644l46 -27q-1 -4 -3 -9.5t-10.5 -20.5t-19.5 -26.5t-30 -21t-42 -9.5q-32 0 -68 30t-57 30q-18 0 -36 -12t-27 -24l-9 -13l-43 36q1 3 4 8.5t13 18.5t22.5 23t32.5 18.5t43 8.5q27 0 51 -15t42.5 -30.5t32.5 -15.5 q16 0 30.5 12.5t20.5 25.5z" />
<glyph unicode="&#xe4;" horiz-adv-x="517" d="M214 604q0 -23 -15 -39.5t-37 -16.5t-36.5 16.5t-14.5 39.5t14.5 39.5t36.5 16.5t37 -16.5t15 -39.5zM371 604q0 -23 -15 -39.5t-37 -16.5t-36.5 16t-14.5 40t14.5 40t36.5 16t37 -16.5t15 -39.5zM501 73l15 -46q-40 -33 -99 -33t-71 53h-1q-67 -62 -164 -62 q-68 0 -108 31.5t-40 93.5q0 131 239 131q33 0 70 -8v82q0 51 -28 74t-96 23q-32 0 -67 -7t-55 -14l-19 -7l-17 66q85 32 176 32q92 0 139.5 -38t47.5 -110v-249q0 -27 21 -27q10 0 24.5 4t23.5 8zM342 108v66q-33 5 -69 5q-159 0 -159 -67q0 -59 84 -59t144 55z" />
<glyph unicode="&#xe5;" horiz-adv-x="517" d="M501 73l15 -46q-40 -33 -99 -33t-71 53h-1q-67 -62 -164 -62q-68 0 -108 31.5t-40 93.5q0 131 239 131q33 0 70 -8v82q0 51 -28 74t-96 23q-32 0 -67 -7t-55 -14l-19 -7l-17 66q85 32 176 32q92 0 139.5 -38t47.5 -110v-249q0 -27 21 -27q10 0 24.5 4t23.5 8zM342 108v66 q-33 5 -69 5q-159 0 -159 -67q0 -59 84 -59t144 55zM239 538q-29 0 -47 19t-18 50t18 50t47 19t46.5 -19t17.5 -50t-17.5 -50t-46.5 -19zM265 607q0 30 -26 30q-27 0 -27 -30t27 -30q26 0 26 30z" />
<glyph unicode="&#xe6;" horiz-adv-x="812" d="M729 111l25 -57q-3 -3 -8 -7.5t-22 -16.5t-36 -21t-49.5 -16.5t-61.5 -7.5q-124 0 -187 86q-86 -86 -209 -86q-68 0 -108 31.5t-40 93.5q0 131 239 131q33 0 70 -8v82q0 51 -28 74t-96 23q-32 0 -67 -7t-55 -14l-19 -7l-17 66q85 32 176 32q123 0 166 -75q60 75 170 75 q56 0 98.5 -22.5t64 -57t31.5 -68t10 -64.5q0 -17 -2.5 -33.5t-5.5 -24.5l-2 -9h-341q8 -68 46.5 -108t106.5 -40q42 0 79.5 14t54.5 28zM347 174q-23 5 -74 5q-159 0 -159 -67q0 -59 84 -59q92 0 165 62q-12 34 -16 59zM700 267v9q0 57 -32.5 96.5t-95.5 39.5 q-64 0 -102 -40t-46 -105h276z" />
<glyph unicode="&#xe7;" horiz-adv-x="479" d="M202 -156l19 36q17 -16 51 -16q32 0 32 29q0 31 -74 31l20 62q-102 8 -156 77t-54 170q0 107 60.5 178t174.5 71q46 0 85.5 -11.5t55.5 -22.5l17 -12l-31 -61q-4 4 -12 10t-40.5 16.5t-72.5 10.5q-75 0 -115 -50t-40 -129t39.5 -128.5t114.5 -49.5q42 0 80 14t54 28 l17 14l25 -62q-6 -6 -18 -15t-51.5 -26.5t-82.5 -21.5l-10 -29q26 -2 45 -17.5t19 -46.5q0 -34 -21.5 -54.5t-60.5 -20.5q-19 0 -36.5 6.5t-25.5 13.5z" />
<glyph unicode="&#xe8;" horiz-adv-x="510" d="M464 203h-341q8 -67 47 -107.5t106 -40.5q42 0 79.5 14t54.5 28l17 14l25 -57q-3 -3 -8 -7.5t-22 -16.5t-36 -21t-49.5 -16.5t-61.5 -7.5q-114 0 -174.5 70t-60.5 178q0 107 59 178t171 71q56 0 98.5 -22.5t64 -57t31.5 -68t10 -64.5q0 -17 -2.5 -33.5t-5.5 -24.5z M123 267h275v9q0 57 -32.5 96.5t-95.5 39.5q-64 0 -102 -40t-45 -105zM302 547h-74l-103 196h99z" />
<glyph unicode="&#xe9;" horiz-adv-x="510" d="M296 547h-74l79 196h99zM464 203h-341q8 -67 47 -107.5t106 -40.5q42 0 79.5 14t54.5 28l17 14l25 -57q-3 -3 -8 -7.5t-22 -16.5t-36 -21t-49.5 -16.5t-61.5 -7.5q-114 0 -174.5 70t-60.5 178q0 107 59 178t171 71q56 0 98.5 -22.5t64 -57t31.5 -68t10 -64.5 q0 -17 -2.5 -33.5t-5.5 -24.5zM123 267h275v9q0 57 -32.5 96.5t-95.5 39.5q-64 0 -102 -40t-45 -105z" />
<glyph unicode="&#xea;" horiz-adv-x="510" d="M411 547h-72l-72 122l-73 -122h-71l95 196h97zM464 203h-341q8 -67 47 -107.5t106 -40.5q42 0 79.5 14t54.5 28l17 14l25 -57q-3 -3 -8 -7.5t-22 -16.5t-36 -21t-49.5 -16.5t-61.5 -7.5q-114 0 -174.5 70t-60.5 178q0 107 59 178t171 71q56 0 98.5 -22.5t64 -57t31.5 -68 t10 -64.5q0 -17 -2.5 -33.5t-5.5 -24.5zM123 267h275v9q0 57 -32.5 96.5t-95.5 39.5q-64 0 -102 -40t-45 -105z" />
<glyph unicode="&#xeb;" horiz-adv-x="510" d="M243 604q0 -23 -15 -39.5t-37 -16.5t-36.5 16.5t-14.5 39.5t14.5 39.5t36.5 16.5t37 -16.5t15 -39.5zM400 604q0 -23 -15 -39.5t-37 -16.5t-36.5 16t-14.5 40t14.5 40t36.5 16t37 -16.5t15 -39.5zM464 203h-341q8 -67 47 -107.5t106 -40.5q42 0 79.5 14t54.5 28l17 14 l25 -57q-3 -3 -8 -7.5t-22 -16.5t-36 -21t-49.5 -16.5t-61.5 -7.5q-114 0 -174.5 70t-60.5 178q0 107 59 178t171 71q56 0 98.5 -22.5t64 -57t31.5 -68t10 -64.5q0 -17 -2.5 -33.5t-5.5 -24.5zM123 267h275v9q0 57 -32.5 96.5t-95.5 39.5q-64 0 -102 -40t-45 -105z" />
<glyph unicode="&#xec;" horiz-adv-x="215" d="M148 0h-81v468h81v-468zM146 547h-74l-103 196h99z" />
<glyph unicode="&#xed;" horiz-adv-x="215" d="M150 547h-74l79 196h99zM148 0h-81v468h81v-468z" />
<glyph unicode="&#xee;" horiz-adv-x="215" d="M255 547h-72l-72 122l-73 -122h-71l95 196h97zM148 0h-81v468h81v-468z" />
<glyph unicode="&#xef;" horiz-adv-x="215" d="M81 604q0 -23 -15 -39.5t-37 -16.5t-36.5 16.5t-14.5 39.5t14.5 39.5t36.5 16.5t37 -16.5t15 -39.5zM238 604q0 -23 -15 -39.5t-37 -16.5t-36.5 16t-14.5 40t14.5 40t36.5 16t37 -16.5t15 -39.5zM148 0h-81v468h81v-468z" />
<glyph unicode="&#xf0;" horiz-adv-x="591" d="M259 520l-37 41l62 69q-17 4 -41 4q-38 0 -71.5 -12t-47.5 -24l-15 -11l-40 68q7 6 21 16t59.5 26t95.5 16q55 0 100 -15l70 78l37 -41l-54 -60q73 -42 111 -125t38 -194q0 -78 -15.5 -143t-48 -117t-87 -81.5t-126.5 -29.5q-101 0 -165 63.5t-64 161.5q0 111 61 171 t173 60q104 0 183 -74q-6 183 -118 243zM270 63q74 0 123.5 57.5t61.5 169.5q-80 71 -180 71q-66 0 -105 -40t-39 -111q0 -63 39 -105t100 -42z" />
<glyph unicode="&#xf1;" horiz-adv-x="553" d="M396 644l46 -27q-1 -4 -3 -9.5t-10.5 -20.5t-19.5 -26.5t-30 -21t-42 -9.5q-32 0 -68 30t-57 30q-18 0 -36 -12t-27 -24l-9 -13l-43 36q1 3 4 8.5t13 18.5t22.5 23t32.5 18.5t43 8.5q27 0 51 -15t42.5 -30.5t32.5 -15.5q16 0 30.5 12.5t21.5 25.5zM538 73l15 -46 q-40 -33 -99 -33q-41 0 -58.5 20.5t-17.5 68.5v212q0 60 -21 86t-71 26q-71 0 -140 -69v-338h-81v448l81 26v-71l5 5l9 9t11.5 11t15 12.5t18 12t21.5 11.5t23.5 9t27 6.5t29.5 2.5q76 0 114.5 -46t38.5 -132v-219q0 -27 21 -27q11 0 25.5 4t23.5 8z" />
<glyph unicode="&#xf2;" d="M310 547h-74l-103 196h99zM509 233q0 -107 -60.5 -177.5t-173.5 -70.5q-114 0 -174.5 70.5t-60.5 177.5t60.5 178t174.5 71t174 -71t60 -178zM275 55q74 0 113.5 49.5t39.5 128.5t-39.5 129t-113.5 50t-113.5 -50t-39.5 -129t39.5 -128.5t113.5 -49.5z" />
<glyph unicode="&#xf3;" d="M304 547h-74l79 196h99zM509 233q0 -107 -60.5 -177.5t-173.5 -70.5q-114 0 -174.5 70.5t-60.5 177.5t60.5 178t174.5 71t174 -71t60 -178zM275 55q74 0 113.5 49.5t39.5 128.5t-39.5 129t-113.5 50t-113.5 -50t-39.5 -129t39.5 -128.5t113.5 -49.5z" />
<glyph unicode="&#xf4;" d="M417 547h-72l-72 122l-73 -122h-71l95 196h97zM509 233q0 -107 -60.5 -177.5t-173.5 -70.5q-114 0 -174.5 70.5t-60.5 177.5t60.5 178t174.5 71t174 -71t60 -178zM275 55q74 0 113.5 49.5t39.5 128.5t-39.5 129t-113.5 50t-113.5 -50t-39.5 -129t39.5 -128.5t113.5 -49.5 z" />
<glyph unicode="&#xf5;" d="M509 233q0 -107 -60.5 -177.5t-173.5 -70.5q-114 0 -174.5 70.5t-60.5 177.5t60.5 178t174.5 71t174 -71t60 -178zM275 55q74 0 113.5 49.5t39.5 128.5t-39.5 129t-113.5 50t-113.5 -50t-39.5 -129t39.5 -128.5t113.5 -49.5zM400 644l46 -27q-1 -4 -3 -9.5t-10.5 -20.5 t-19.5 -26.5t-30 -21t-42 -9.5q-32 0 -68 30t-57 30q-18 0 -36 -12t-27 -24l-9 -13l-43 36q1 3 4 8.5t13 18.5t22.5 23t32.5 18.5t43 8.5q27 0 51 -15t42.5 -30.5t32.5 -15.5q16 0 30.5 12.5t21.5 25.5z" />
<glyph unicode="&#xf6;" d="M249 604q0 -23 -15 -39.5t-37 -16.5t-36.5 16.5t-14.5 39.5t14.5 39.5t36.5 16.5t37 -16.5t15 -39.5zM406 604q0 -23 -15 -39.5t-37 -16.5t-36.5 16t-14.5 40t14.5 40t36.5 16t37 -16.5t15 -39.5zM509 233q0 -107 -60.5 -177.5t-173.5 -70.5q-114 0 -174.5 70.5 t-60.5 177.5t60.5 178t174.5 71t174 -71t60 -178zM275 55q74 0 113.5 49.5t39.5 128.5t-39.5 129t-113.5 50t-113.5 -50t-39.5 -129t39.5 -128.5t113.5 -49.5z" />
<glyph unicode="&#xf7;" horiz-adv-x="417" d="M263 47q0 -26 -16.5 -44t-41.5 -18t-41.5 18t-16.5 44t16.5 44t41.5 18t41.5 -18t16.5 -44zM262 422q0 -26 -16.5 -44t-41.5 -18q-24 0 -40.5 18t-16.5 44t16.5 44t40.5 18q25 0 41.5 -18t16.5 -44zM364 185h-312v78h312v-78z" />
<glyph unicode="&#xf8;" d="M509 233q0 -107 -60.5 -177.5t-173.5 -70.5q-12 0 -30 2l-15 -59h-70l19 73q-68 26 -103.5 88.5t-35.5 143.5q0 107 60.5 178t174.5 71q10 0 28 -2l12 47h70l-16 -62q68 -26 104 -88.5t36 -143.5zM275 55q74 0 113.5 49.5t39.5 128.5q0 117 -78 161l-87 -339h12zM122 233 q0 -115 75 -159l88 338h-10q-74 0 -113.5 -50t-39.5 -129z" />
<glyph unicode="&#xf9;" horiz-adv-x="553" d="M535 73l15 -46q-40 -33 -99 -33q-61 0 -72 58h-1q-69 -67 -162 -67q-76 0 -115 46t-39 132v305h81v-296q0 -62 21.5 -89.5t70.5 -27.5q77 0 140 60v333l81 26v-389q0 -27 21 -27q11 0 25.5 4t23.5 8zM314 547h-74l-103 196h99z" />
<glyph unicode="&#xfa;" horiz-adv-x="553" d="M293 547h-74l79 196h99zM535 73l15 -46q-40 -33 -99 -33q-61 0 -72 58h-1q-69 -67 -162 -67q-76 0 -115 46t-39 132v305h81v-296q0 -62 21.5 -89.5t70.5 -27.5q77 0 140 60v333l81 26v-389q0 -27 21 -27q11 0 25.5 4t23.5 8z" />
<glyph unicode="&#xfb;" horiz-adv-x="553" d="M408 547h-72l-72 122l-73 -122h-71l95 196h97zM535 73l15 -46q-40 -33 -99 -33q-61 0 -72 58h-1q-69 -67 -162 -67q-76 0 -115 46t-39 132v305h81v-296q0 -62 21.5 -89.5t70.5 -27.5q77 0 140 60v333l81 26v-389q0 -27 21 -27q11 0 25.5 4t23.5 8z" />
<glyph unicode="&#xfc;" horiz-adv-x="553" d="M238 604q0 -23 -15 -39.5t-37 -16.5t-36.5 16.5t-14.5 39.5t14.5 39.5t36.5 16.5t37 -16.5t15 -39.5zM395 604q0 -23 -15 -39.5t-37 -16.5t-36.5 16t-14.5 40t14.5 40t36.5 16t37 -16.5t15 -39.5zM535 73l15 -46q-40 -33 -99 -33q-61 0 -72 58h-1q-69 -67 -162 -67 q-76 0 -115 46t-39 132v305h81v-296q0 -62 21.5 -89.5t70.5 -27.5q77 0 140 60v333l81 26v-389q0 -27 21 -27q11 0 25.5 4t23.5 8z" />
<glyph unicode="&#xfd;" horiz-adv-x="496" d="M186 -263h-75l104 263h-9l-186 468h87l143 -382l139 382h88zM266 547h-74l79 196h99z" />
<glyph unicode="&#xfe;" horiz-adv-x="542" d="M148 -263h-81v987l81 26v-338q57 70 144 70q99 0 154 -70.5t55 -181.5q0 -107 -62.5 -176t-169.5 -69q-66 0 -121 24v-272zM148 350v-267q40 -28 122 -28q69 0 109.5 48t40.5 127q0 87 -37.5 134.5t-108.5 47.5q-76 0 -126 -62z" />
<glyph unicode="&#xff;" horiz-adv-x="496" d="M223 604q0 -23 -15 -39.5t-37 -16.5t-36.5 16.5t-14.5 39.5t14.5 39.5t36.5 16.5t37 -16.5t15 -39.5zM380 604q0 -23 -15 -39.5t-37 -16.5t-36.5 16t-14.5 40t14.5 40t36.5 16t37 -16.5t15 -39.5zM186 -263h-75l104 263h-9l-186 468h87l143 -382l139 382h88z" />
<glyph unicode="&#x152;" horiz-adv-x="1144" d="M1101 0h-477v96q-88 -111 -246 -111q-111 0 -188 51t-111 131.5t-34 183.5q0 163 89 262.5t244 99.5q156 0 246 -112v99h477v-78h-389v-241h317v-78h-317v-225h389v-78zM622 351q0 134 -65 209t-179 75t-179 -75t-65 -209q0 -126 61 -207t183 -81q121 0 182.5 81 t61.5 207z" />
<glyph unicode="&#x153;" horiz-adv-x="905" d="M859 203h-342q8 -67 47 -107.5t107 -40.5q42 0 79.5 14t54.5 28l17 14l25 -57q-3 -3 -8 -7.5t-22.5 -16.5t-36.5 -21t-49.5 -16.5t-61.5 -7.5q-137 0 -197 108q-61 -108 -197 -108q-114 0 -174.5 70.5t-60.5 177.5t60.5 178t174.5 71q136 0 196 -110q60 110 194 110 q56 0 98.5 -22.5t64 -57t31.5 -68t10 -64.5q0 -17 -2.5 -33.5t-4.5 -24.5zM275 55q74 0 113.5 49.5t39.5 128.5t-39.5 129t-113.5 50t-113.5 -50t-39.5 -129t39.5 -128.5t113.5 -49.5zM517 267h275v9q0 57 -32 96.5t-95 39.5q-64 0 -102 -40t-46 -105z" />
<glyph unicode="&#x178;" horiz-adv-x="669" d="M378 0h-87v265l-273 435h110l207 -349l210 349h106l-273 -436v-264zM310 810q0 -23 -15 -39.5t-37 -16.5t-36.5 16.5t-14.5 39.5t14.5 39.5t36.5 16.5t37 -16.5t15 -39.5zM467 810q0 -23 -15 -39.5t-37 -16.5t-36.5 16t-14.5 40t14.5 40t36.5 16t37 -16.5t15 -39.5z" />
<glyph unicode="&#x2c6;" horiz-adv-x="365" d="M325 547h-72l-72 122l-73 -122h-71l95 196h97z" />
<glyph unicode="&#x2dc;" horiz-adv-x="390" d="M322 644l46 -27q-1 -4 -3 -9.5t-10.5 -20.5t-19.5 -26.5t-30 -21t-42 -9.5q-32 0 -68 30t-57 30q-18 0 -36 -12t-27 -24l-9 -13l-43 36q1 3 4 8.5t13 18.5t22.5 23t32.5 18.5t43 8.5q27 0 51 -15t42.5 -30.5t32.5 -15.5q16 0 30.5 12.5t21.5 25.5z" />
<glyph unicode="&#x2000;" horiz-adv-x="482" />
<glyph unicode="&#x2001;" horiz-adv-x="965" />
<glyph unicode="&#x2002;" horiz-adv-x="482" />
<glyph unicode="&#x2003;" horiz-adv-x="965" />
<glyph unicode="&#x2004;" horiz-adv-x="321" />
<glyph unicode="&#x2005;" horiz-adv-x="241" />
<glyph unicode="&#x2006;" horiz-adv-x="160" />
<glyph unicode="&#x2007;" horiz-adv-x="160" />
<glyph unicode="&#x2008;" horiz-adv-x="120" />
<glyph unicode="&#x2009;" horiz-adv-x="193" />
<glyph unicode="&#x200a;" horiz-adv-x="53" />
<glyph unicode="&#x2010;" horiz-adv-x="379" d="M316 238h-253v78h253v-78z" />
<glyph unicode="&#x2011;" horiz-adv-x="379" d="M316 238h-253v78h253v-78z" />
<glyph unicode="&#x2012;" horiz-adv-x="379" d="M316 238h-253v78h253v-78z" />
<glyph unicode="&#x2013;" horiz-adv-x="527" d="M460 250h-393v58h393v-58z" />
<glyph unicode="&#x2014;" horiz-adv-x="853" d="M786 250h-719v58h719v-58z" />
<glyph unicode="&#x2018;" horiz-adv-x="215" d="M103 729q2 1 7 1q25 0 41.5 -18t16.5 -44t-16.5 -44t-41.5 -18q-32 0 -48 22.5t-16 59.5q0 45 8 81t19 55t22 32t19 17l8 4l20 -24q-4 -3 -10.5 -10t-17.5 -37t-11 -69v-8z" />
<glyph unicode="&#x2019;" horiz-adv-x="202" d="M83 502l-20 24q4 3 10.5 10t17.5 37t11 69v8q-3 -1 -7 -1q-25 0 -42 18t-17 44t17 44t42 18q63 0 63 -82q0 -45 -7.5 -81t-18.5 -55t-22.5 -32t-19.5 -17z" />
<glyph unicode="&#x201a;" horiz-adv-x="233" d="M102 -162l-20 24q4 3 10.5 10t17.5 37t11 69v8q-3 -1 -7 -1q-25 0 -42 18t-17 44t17 44t42 18q63 0 63 -82q0 -45 -7.5 -81t-18.5 -55t-22.5 -32t-18.5 -17z" />
<glyph unicode="&#x201c;" horiz-adv-x="382" d="M103 729q2 1 7 1q25 0 41.5 -18t16.5 -44t-16.5 -44t-41.5 -18q-32 0 -48 22.5t-16 59.5q0 45 8 81t19 55t22 32t19 17l8 4l20 -24q-4 -3 -10.5 -10t-17.5 -37t-11 -69v-8zM270 729q2 1 7 1q25 0 41.5 -18t16.5 -44t-16.5 -44t-41.5 -18q-32 0 -48 22.5t-16 59.5 q0 45 8 81t19 55t22 32t19 17l8 4l20 -24q-4 -3 -10.5 -10t-17.5 -37t-11 -69v-8z" />
<glyph unicode="&#x201d;" horiz-adv-x="356" d="M83 502l-20 24q4 3 10.5 10t17.5 37t11 69v8q-3 -1 -7 -1q-25 0 -42 18t-17 44t17 44t42 18q63 0 63 -82q0 -45 -7.5 -81t-18.5 -55t-22.5 -32t-19.5 -17zM236 502l-20 24q4 3 10.5 10t17.5 37t11 69v8q-2 -1 -7 -1q-25 0 -41.5 18t-16.5 44t16.5 44t41.5 18 q32 0 48 -22.5t16 -59.5q0 -45 -8 -81t-19 -55t-22 -32t-19 -17z" />
<glyph unicode="&#x201e;" horiz-adv-x="369" d="M102 -162l-20 24q4 3 10.5 10t17.5 37t11 69v8q-3 -1 -7 -1q-25 0 -42 18t-17 44t17 44t42 18q63 0 63 -82q0 -45 -7.5 -81t-18.5 -55t-22.5 -32t-18.5 -17zM238 -162l-20 24q4 3 10.5 10t17.5 37t11 69v8q-3 -1 -7 -1q-25 0 -41.5 18t-16.5 44t16.5 44t41.5 18 q63 0 63 -82q0 -45 -7.5 -81t-18.5 -55t-22.5 -32t-18.5 -17z" />
<glyph unicode="&#x2022;" horiz-adv-x="399" d="M72 318q0 57 37.5 97t90.5 40t90.5 -40t37.5 -97t-37.5 -97t-90.5 -40t-90.5 40t-37.5 97z" />
<glyph unicode="&#x2026;" horiz-adv-x="528" d="M172 47q0 -26 -16.5 -44t-41.5 -18t-42 18t-17 44t17 44t42 18t41.5 -18t16.5 -44zM323 47q0 -26 -16.5 -44t-41.5 -18t-42 18t-17 44t17 44t42 18t41.5 -18t16.5 -44zM473 47q0 -26 -17 -44t-42 -18t-41.5 18t-16.5 44t16.5 44t41.5 18t42 -18t17 -44z" />
<glyph unicode="&#x202f;" horiz-adv-x="193" />
<glyph unicode="&#x2039;" horiz-adv-x="317" d="M274 49l-48 -51l-183 188v60l183 188l46 -50l-142 -168z" />
<glyph unicode="&#x203a;" horiz-adv-x="317" d="M274 186l-183 -188l-48 51l144 167l-142 168l46 50l183 -188v-60z" />
<glyph unicode="&#x205f;" horiz-adv-x="241" />
<glyph unicode="&#x20ac;" horiz-adv-x="744" d="M480 228h-268q54 -165 226 -165q64 0 125.5 21.5t90.5 43.5l29 21l28 -71q-4 -4 -11.5 -10t-34 -22t-56 -28.5t-76 -22.5t-96.5 -10q-133 0 -212.5 65.5t-106.5 177.5h-73v68h435v-68zM480 391h-435v68h68q25 118 109 186t215 68q74 0 133 -18.5t82 -36.5l22 -19l-39 -64 q-2 2 -7 6.5t-23 14.5t-39 18t-55.5 14.5t-73.5 6.5q-89 0 -148.5 -45.5t-82.5 -130.5h274v-68z" />
<glyph unicode="&#x2122;" horiz-adv-x="830" d="M233 325h-60v295h-124v55h304v-55h-120v-295zM758 325h-60v237l-95 -237h-67l-92 237v-237h-59v350h68l118 -306l115 306h72v-350z" />
<glyph unicode="&#xfb01;" horiz-adv-x="567" d="M500 0h-81v399h-240v-399h-81v399h-76l18 69h58v96q0 187 160 187q27 0 52.5 -7.5t37.5 -15.5l13 -7l-28 -57q-26 15 -71 15q-43 0 -63 -26t-20 -86v-99h321v-468zM515 611q0 -26 -16 -43t-41 -17t-41 17t-16 43t16 43t41 17t41 -17t16 -43z" />
<glyph unicode="&#xfb02;" horiz-adv-x="617" d="M179 0h-81v399h-76l18 69h58v96q0 187 160 187q28 0 54 -7.5t38 -15.5l13 -7l-28 -57q-27 15 -73 15q-43 0 -63 -26t-20 -86v-99h153v-69h-153v-399zM605 76l15 -46q-49 -36 -121 -36q-43 0 -61.5 20.5t-18.5 68.5v641l81 26v-660q0 -32 30 -32q13 0 32 4.5t31 9.5z" />
</font>
</defs>
</svg>
