<?xml version="1.0" standalone="no"?>
<!DOCTYPE svg PUBLIC "-//W3C//DTD SVG 1.1//EN" "http://www.w3.org/Graphics/SVG/1.1/DTD/svg11.dtd" >
<svg xmlns="http://www.w3.org/2000/svg">
<metadata></metadata>
<defs>
<font id="magallanes_cond_boldbold" horiz-adv-x="663" >
<font-face units-per-em="1000" ascent="750" descent="-250" />
<missing-glyph horiz-adv-x="210" />
<glyph horiz-adv-x="0" />
<glyph horiz-adv-x="333" />
<glyph unicode=" "  horiz-adv-x="210" />
<glyph unicode="&#x09;" horiz-adv-x="210" />
<glyph unicode="&#xa0;" horiz-adv-x="210" />
<glyph unicode="!" horiz-adv-x="274" d="M194 219h-115l-20 481h158zM225 70q0 -35 -25.5 -60t-62.5 -25t-62 25t-25 60q0 36 25 61t62 25t62.5 -25.5t25.5 -60.5z" />
<glyph unicode="&#x22;" horiz-adv-x="369" d="M145 556h-87l-18 217h124zM310 556h-87l-19 217h124z" />
<glyph unicode="#" horiz-adv-x="629" d="M539 124h-95l-31 -124h-107l30 124h-117l-31 -124h-107l31 124h-67v104h96l26 99h-72v104h101l24 98h107l-24 -98h117l24 98h108l-24 -98h61v-104h-90l-26 -99h66v-104zM365 228l26 99h-117l-26 -99h117z" />
<glyph unicode="$" horiz-adv-x="624" d="M359 749h-87l-19 226h123zM376 -297h-123l19 226h87zM586 643l-49 -121q-9 7 -26 17.5t-75.5 28t-122.5 17.5q-62 0 -92 -21t-30 -56q0 -39 37 -59t107 -36q136 -26 196.5 -72.5t60.5 -144.5q0 -95 -72 -153.5t-205 -57.5q-59 0 -110.5 10.5t-83 25t-54.5 29.5t-33 25 l-9 10l60 111q3 -3 9.5 -9t29 -20.5t47.5 -26t64 -20.5t80 -9q63 0 96.5 21.5t33.5 59.5q0 37 -26 54t-111 36q-48 10 -81 19t-70.5 26t-60 39t-38 56t-15.5 78q0 91 71 152t199 61q76 0 144 -17.5t99 -35.5z" />
<glyph unicode="%" horiz-adv-x="660" d="M162 -15h-114l449 728h114zM630 138q0 -69 -38.5 -111t-104.5 -42q-67 0 -105.5 42t-38.5 111t38 110t106 41q67 0 105 -41t38 -110zM487 61q29 0 45.5 21t16.5 56q0 34 -16.5 53t-45.5 19t-46 -19t-17 -53q0 -35 16.5 -56t46.5 -21zM318 562q0 -69 -38 -111t-104 -42 q-67 0 -105.5 42t-38.5 111t38 110t106 41q67 0 104.5 -41t37.5 -110zM176 485q29 0 45.5 21t16.5 56q0 33 -16.5 52t-45.5 19q-30 0 -46.5 -19t-16.5 -52q0 -35 16.5 -56t46.5 -21z" />
<glyph unicode="&#x26;" horiz-adv-x="652" d="M625 38l-84 -88l-68 75q-71 -41 -162 -41q-127 0 -195 56.5t-68 162.5t102 182q-47 67 -47 147t56 130.5t156 50.5q65 0 118.5 -18.5t74.5 -36.5l22 -19l-52 -108q-5 6 -15 15.5t-46 25t-78 15.5q-44 0 -64.5 -21.5t-20.5 -54.5q0 -53 50 -112l171 -192q16 39 16 84h126 q0 -101 -55 -183zM311 104q44 0 78 14l-169 189q-40 -34 -40 -99q0 -49 33.5 -76.5t97.5 -27.5z" />
<glyph unicode="'" horiz-adv-x="204" d="M145 556h-87l-18 217h124z" />
<glyph unicode="(" horiz-adv-x="301" d="M283 -236l-108 -61q-6 8 -15.5 23t-33.5 67t-42.5 110t-33.5 150t-15 188q0 97 14.5 188t35 152t41 108t34.5 69l15 22l108 -61q-5 -6 -13 -18.5t-29 -57t-37.5 -95.5t-29.5 -134t-13 -173t12.5 -172t30.5 -135t36 -93.5t30 -58.5z" />
<glyph unicode=")" horiz-adv-x="301" d="M126 -297l-108 61q5 6 13.5 18.5t29.5 57t37 95.5t29.5 133.5t13.5 172.5t-12.5 172t-30.5 135.5t-36.5 94t-31.5 58.5l-12 18l108 61q6 -8 15.5 -23t33.5 -67t43 -110t34 -150t15 -189q0 -96 -14.5 -187t-35.5 -152t-41.5 -108t-35.5 -69z" />
<glyph unicode="*" horiz-adv-x="474" d="M387 399l-112 89l13 -154h-102l13 155l-112 -90l-51 91l125 66l-125 65l51 91l112 -88l-13 154h102l-13 -154l112 88l51 -91l-125 -65l125 -66z" />
<glyph unicode="+" horiz-adv-x="547" d="M333 99h-119v205h-182v120h182v204h119v-204h182v-120h-182v-205z" />
<glyph unicode="," horiz-adv-x="280" d="M131 -177l-43 45q6 4 14.5 12.5t23 37.5t14.5 63v4h-5q-39 0 -65.5 26t-26.5 63q0 38 26.5 64t65.5 26q49 0 75 -32.5t26 -85.5q0 -52 -11 -94t-26 -65t-30.5 -38.5t-26.5 -20.5z" />
<glyph unicode="-" horiz-adv-x="380" d="M325 222h-271v119h271v-119z" />
<glyph unicode="." horiz-adv-x="270" d="M228 74q0 -37 -27 -63t-66 -26t-65.5 26t-26.5 63q0 38 26.5 64t65.5 26t66 -26t27 -64z" />
<glyph unicode="/" horiz-adv-x="423" d="M151 -248h-127l248 948h127z" />
<glyph unicode="0" horiz-adv-x="657" d="M329 -15q-139 0 -215 102.5t-76 265.5q0 162 81.5 261t209.5 99t209 -99t81 -261q0 -163 -75.5 -265.5t-214.5 -102.5zM329 112q74 0 110 65.5t36 175.5t-39 171.5t-107 61.5q-69 0 -107.5 -60.5t-38.5 -172.5q0 -110 36 -175.5t110 -65.5z" />
<glyph unicode="1" horiz-adv-x="461" d="M391 0h-147v537l-173 -122l-71 116q258 169 259 169h132v-700z" />
<glyph unicode="2" horiz-adv-x="569" d="M527 0h-481v115l202 161q47 37 70.5 62t37.5 58t14 78q0 48 -31 80t-84 32q-48 0 -91 -16.5t-62 -33.5l-20 -16l-56 120q4 3 10.5 8t30 17.5t49.5 22t67.5 17.5t84.5 8q119 0 183 -64t64 -167q0 -85 -28.5 -141.5t-96.5 -116.5l-115 -99h252v-125z" />
<glyph unicode="3" horiz-adv-x="594" d="M235 298v118q155 0 155 90q0 35 -28.5 57.5t-81.5 22.5q-46 0 -89 -16.5t-63 -33.5l-20 -16l-55 122q4 3 10.5 7.5t29 17t47 22t63 17t77.5 7.5q119 0 187 -53t68 -138q0 -138 -114 -163q58 -6 96.5 -47t38.5 -127q0 -91 -74 -145.5t-204 -54.5q-45 0 -88.5 9.5 t-73.5 23.5t-53.5 28t-34.5 24l-12 9l60 115q3 -3 9 -8.5t26 -20t42 -25t56 -19.5t69 -9q61 0 97.5 23.5t36.5 64.5q0 98 -177 98z" />
<glyph unicode="4" horiz-adv-x="578" d="M483 0h-141v136h-319v106l186 451h154l-172 -433h151v181h141v-181h72v-124h-72v-136z" />
<glyph unicode="5" horiz-adv-x="591" d="M519 575h-300l-10 -142q43 12 97 12q50 0 91.5 -10.5t79.5 -35.5t59.5 -72.5t21.5 -113.5q0 -109 -71 -169t-199 -60q-72 0 -139 19t-98 37l-31 19l59 114q9 -7 24.5 -17.5t67 -28t105.5 -17.5q141 0 141 103q0 111 -145 111q-48 0 -98.5 -9t-77.5 -17l-26 -9l27 411h422 v-125z" />
<glyph unicode="6" horiz-adv-x="605" d="M351 586q-73 0 -117 -47t-53 -143q69 45 138 45q120 0 186 -60t66 -171q0 -99 -68.5 -162t-184.5 -63q-141 0 -210 102.5t-69 268.5q0 162 78.5 259.5t224.5 97.5q59 0 112 -14.5t76 -28.5l23 -15l-60 -116q-6 5 -17 13t-48 21t-77 13zM314 329q-69 0 -132 -48 q10 -85 45.5 -127t90.5 -42q53 0 80 28t27 78q0 52 -29.5 81.5t-81.5 29.5z" />
<glyph unicode="7" horiz-adv-x="525" d="M280 0h-160l225 575h-329v125h491v-112z" />
<glyph unicode="8" horiz-adv-x="620" d="M468 370q115 -61 115 -180q0 -90 -66 -147.5t-205 -57.5q-143 0 -208.5 56t-65.5 144q0 117 128 175q-107 50 -107 169q0 81 68 132.5t185 51.5q115 0 182 -51.5t67 -132.5q0 -111 -93 -159zM312 325q-25 -6 -43.5 -13.5t-41 -21t-35 -36.5t-12.5 -53q0 -41 33 -70 t99 -29q67 0 99 30t32 74q0 97 -131 119zM312 417l38 -8q68 24 68 102q0 39 -29 63t-77 24q-50 0 -80.5 -23.5t-30.5 -60.5q0 -18 4.5 -32.5t13.5 -24t18.5 -16.5t22 -11.5t20.5 -6.5t19 -4t13 -2z" />
<glyph unicode="9" horiz-adv-x="605" d="M255 112q73 0 117 47t53 143q-65 -45 -138 -45q-120 0 -185.5 60t-65.5 171q0 99 68 162t184 63q141 0 210.5 -102.5t69.5 -268.5q0 -162 -78.5 -259.5t-224.5 -97.5q-59 0 -112 14.5t-77 28.5l-23 15l60 116q6 -5 17 -13t48 -21t77 -13zM292 369q72 0 131 48 q-9 85 -44.5 127t-90.5 42q-53 0 -80 -28t-27 -78q0 -52 30 -81.5t81 -29.5z" />
<glyph unicode=":" horiz-adv-x="276" d="M226 70q0 -35 -25.5 -60t-62.5 -25t-62 25t-25 60q0 36 25.5 61t61.5 25q37 0 62.5 -25.5t25.5 -60.5zM225 398q0 -36 -25.5 -61t-61.5 -25q-37 0 -62.5 25t-25.5 61q0 35 25.5 60t62.5 25t62 -25t25 -60z" />
<glyph unicode=";" horiz-adv-x="288" d="M227 399q0 -35 -25.5 -60t-62.5 -25t-62 25t-25 60t25 60.5t62 25.5t62.5 -25t25.5 -61zM135 -178l-42 45q6 4 14.5 12.5t23 38t14.5 63.5v4q-1 -1 -5 -1q-37 0 -63.5 25t-26.5 60q0 36 26.5 61.5t63.5 25.5q49 0 75 -31t26 -80q0 -53 -11 -95.5t-26.5 -65t-31 -38 t-26.5 -20.5z" />
<glyph unicode="&#x3c;" horiz-adv-x="369" d="M320 17l-287 179v124l287 182v-127l-174 -117l174 -117v-124z" />
<glyph unicode="=" horiz-adv-x="486" d="M432 336h-378v119h378v-119zM432 106h-378v119h378v-119z" />
<glyph unicode="&#x3e;" horiz-adv-x="369" d="M336 196l-288 -179v124l175 117l-175 117v127l288 -182v-124z" />
<glyph unicode="?" horiz-adv-x="531" d="M314 205h-122v129q6 2 17 5.5t38 17t48 30.5t38 46.5t17 63.5q0 39 -28 64.5t-74 25.5q-44 0 -85.5 -16.5t-60.5 -33.5l-20 -17l-57 112q10 9 29.5 22.5t81.5 36t127 22.5q110 0 170.5 -59.5t60.5 -156.5q0 -47 -18.5 -88.5t-45 -67t-53 -44.5t-45.5 -27l-18 -8v-57z M338 70q0 -35 -25.5 -60t-62.5 -25t-62.5 25t-25.5 60t25.5 60.5t62.5 25.5t62.5 -25.5t25.5 -60.5z" />
<glyph unicode="@" horiz-adv-x="972" d="M347 -112l-62 -100q-123 62 -185 187.5t-62 276.5q0 207 125.5 335.5t333.5 128.5q202 0 324 -121.5t122 -317.5q0 -142 -72 -212.5t-185 -70.5q-78 0 -99 60h-1q-47 -69 -146 -69q-94 0 -145 70t-51 182q0 109 68 177t181 68q66 0 120.5 -21t75.5 -41l21 -21v-273 q1 -16 6 -21.5t18 -5.5q44 1 64.5 42t20.5 136q0 152 -88.5 240.5t-233.5 88.5q-150 0 -240 -95.5t-90 -258.5q0 -246 180 -364zM582 151v193q-31 28 -94 28q-49 0 -80 -37t-31 -100q0 -139 107 -139q57 0 98 55z" />
<glyph unicode="A" d="M658 0h-149l-50 155h-256l-49 -155h-149l249 700h155zM418 272l-87 272l-87 -272h174z" />
<glyph unicode="B" horiz-adv-x="637" d="M382 0h-312v700h300q103 0 153 -47.5t50 -129.5q0 -131 -99 -165q69 -14 100 -55.5t31 -116.5q0 -87 -61 -136.5t-162 -49.5zM364 300h-153v-175h162q91 0 91 84q0 91 -100 91zM353 575h-142v-169h144q33 0 54.5 23t21.5 68q0 35 -20.5 56.5t-57.5 21.5z" />
<glyph unicode="C" horiz-adv-x="683" d="M633 193l38 -120q-4 -4 -11 -9.5t-33 -21t-55 -27t-76 -21t-98 -9.5q-77 0 -138.5 19.5t-103 53t-69 81t-39.5 101.5t-12 116q0 164 94 260.5t268 96.5q74 0 133.5 -16.5t82.5 -32.5l23 -17l-53 -120l-6.5 6.5t-21 14.5t-36 18t-52.5 14.5t-70 6.5q-96 0 -156.5 -63 t-60.5 -168q0 -110 55.5 -177.5t167.5 -67.5q60 0 117 20.5t85 40.5z" />
<glyph unicode="D" horiz-adv-x="703" d="M328 0h-258v700h258q164 0 251 -90.5t87 -263.5q0 -170 -89.5 -258t-248.5 -88zM211 125h102q106 -1 159 52t53 169q0 119 -53 174t-162 55h-99v-450z" />
<glyph unicode="E" horiz-adv-x="622" d="M582 0h-512v700h512v-125h-371v-170h292v-114h-292v-166h371v-125z" />
<glyph unicode="F" horiz-adv-x="597" d="M503 281h-292v-281h-141v700h512v-125h-371v-180h292v-114z" />
<glyph unicode="G" horiz-adv-x="701" d="M523 140v124h-186v109h321v-300q-4 -4 -10.5 -9.5t-31 -21t-52 -27t-73 -21t-93.5 -9.5q-77 0 -138.5 19.5t-103 53t-69 81t-39.5 101.5t-12 116q0 164 94 260.5t268 96.5q74 0 133.5 -16.5t82.5 -32.5l23 -17l-53 -121q-6 7 -19 17t-61 27t-106 17q-96 0 -156.5 -63 t-60.5 -168q0 -110 55.5 -177.5t167.5 -67.5q59 0 119 29z" />
<glyph unicode="H" horiz-adv-x="710" d="M640 0h-140v278h-289v-278h-141v700h141v-297h289v297h140v-700z" />
<glyph unicode="I" horiz-adv-x="281" d="M211 0h-141v700h141v-700z" />
<glyph unicode="J" horiz-adv-x="285" d="M109 -39l-85 62q6 6 15 17.5t24.5 50t15.5 82.5v527h141v-525q0 -48 -11.5 -87.5t-28 -62t-32.5 -38t-28 -21.5z" />
<glyph unicode="K" horiz-adv-x="672" d="M642 119l32 -87q-48 -38 -121 -38q-58 0 -96 27.5t-64 82.5l-73 150q-11 -1 -35 -1h-74v-253h-141v700h141v-322h78q85 0 120 70.5t35 251.5h141q0 -163 -30.5 -264t-101.5 -145l79 -149q21 -38 58 -38q12 0 25 4t20 8z" />
<glyph unicode="L" horiz-adv-x="557" d="M552 0h-482v700h141v-575h341v-125z" />
<glyph unicode="M" horiz-adv-x="795" d="M724 0h-140v390l-145 -390h-84l-144 390v-390h-141v700h127l201 -487l199 487h127v-700z" />
<glyph unicode="N" horiz-adv-x="703" d="M632 0h-110l-311 449v-449h-141v700h112l310 -462v462h140v-700z" />
<glyph unicode="O" horiz-adv-x="767" d="M732 351q0 -158 -89.5 -262t-258.5 -104q-115 0 -195.5 51t-117 132t-36.5 183q0 163 93.5 262.5t255.5 99.5q161 0 254.5 -99.5t93.5 -262.5zM590 351q0 107 -55.5 171.5t-150.5 64.5q-96 0 -151.5 -64.5t-55.5 -171.5q0 -106 51.5 -173t155.5 -67q103 0 154.5 67.5 t51.5 172.5z" />
<glyph unicode="P" horiz-adv-x="649" d="M211 0h-141v700h291q126 0 196.5 -64.5t70.5 -193.5q0 -124 -70.5 -187t-196.5 -63h-150v-192zM211 317h150q125 0 125 125q0 69 -30.5 101t-94.5 32h-150v-258z" />
<glyph unicode="Q" horiz-adv-x="769" d="M599 -149v-127q-137 0 -208.5 61.5t-75.5 204.5q-137 19 -208 118.5t-71 242.5q0 163 93.5 262.5t255.5 99.5q161 0 254.5 -99.5t93.5 -262.5q0 -144 -73.5 -244.5t-213.5 -117.5q4 -77 40.5 -107.5t112.5 -30.5zM591 351q0 107 -55.5 171.5t-150.5 64.5 q-96 0 -152 -64.5t-56 -171.5q0 -105 52 -172.5t156 -67.5q103 0 154.5 67.5t51.5 172.5z" />
<glyph unicode="R" horiz-adv-x="664" d="M629 119l38 -87q-45 -38 -121 -38q-67 0 -103 25.5t-57 84.5l-52 135q-18 -3 -41 -3h-82v-236h-141v700h259q254 0 254 -230q0 -151 -109 -204l51 -124q16 -38 53 -38q11 0 24 4t20 8zM211 356h108q124 0 124 114q0 105 -102 105h-130v-219z" />
<glyph unicode="S" horiz-adv-x="627" d="M586 643l-48 -121q-9 7 -26 17.5t-75 28t-123 17.5q-63 0 -93 -21t-30 -56q0 -39 37.5 -59t106.5 -36q137 -26 197.5 -72.5t60.5 -144.5q0 -94 -72 -153t-205 -58q-59 0 -110.5 10.5t-83.5 25t-55 29.5t-33 25l-9 10l60 111q3 -3 9.5 -9t29 -20.5t47.5 -26t64.5 -20.5 t80.5 -9q62 0 96 21.5t34 59.5q0 37 -26.5 54t-111.5 36q-48 10 -81 19t-70 26t-59.5 39t-38 56t-15.5 78q-1 90 70 151.5t199 61.5q76 0 144.5 -17.5t98.5 -35.5z" />
<glyph unicode="T" horiz-adv-x="643" d="M389 0h-141v578h-242v122h631v-122h-248v-578z" />
<glyph unicode="U" horiz-adv-x="686" d="M482 291v409h140v-404q0 -167 -66.5 -238t-213.5 -73q-145 1 -211.5 72.5t-66.5 238.5v404h140v-409q0 -98 32.5 -141t105.5 -43q74 0 107 42t33 142z" />
<glyph unicode="V" horiz-adv-x="695" d="M431 0h-167l-261 700h168l176 -538l178 538h167z" />
<glyph unicode="W" horiz-adv-x="1030" d="M803 0h-167l-121 466l-121 -466h-167l-218 700h167l134 -524l134 524h141l135 -524l133 524h168z" />
<glyph unicode="X" horiz-adv-x="680" d="M678 0h-174l-167 255l-163 -255h-172l240 349l-240 351h174l167 -259l163 259h172l-240 -355z" />
<glyph unicode="Y" horiz-adv-x="674" d="M407 0h-140v257l-263 443h165l168 -305l170 305h163l-263 -444v-256z" />
<glyph unicode="Z" horiz-adv-x="601" d="M562 0h-523v114l338 461h-338v125h523v-111l-334 -464h334v-125z" />
<glyph unicode="[" horiz-adv-x="358" d="M330 -297h-266v1064h266v-116h-140v-832h140v-116z" />
<glyph unicode="\" horiz-adv-x="423" d="M399 -248h-127l-248 948h127z" />
<glyph unicode="]" horiz-adv-x="358" d="M294 -297h-267v116h141v832h-141v116h267v-1064z" />
<glyph unicode="^" horiz-adv-x="481" d="M439 512h-102l-93 181l-103 -180h-102l138 265h135z" />
<glyph unicode="_" horiz-adv-x="465" d="M412 -95h-358v90h358v-90z" />
<glyph unicode="`" horiz-adv-x="279" d="M255 547h-122l-116 204h156z" />
<glyph unicode="a" horiz-adv-x="521" d="M506 110l16 -82q-43 -34 -103 -34q-79 0 -98 59h-1q-62 -68 -152 -68q-65 0 -104.5 34t-39.5 99q0 62 55 97.5t173 35.5q35 0 59 -6v47q0 44 -23 62t-78 18q-33 0 -67 -7t-51 -14l-18 -7l-22 107q80 31 192 31q199 0 199 -164v-189q0 -17 5.5 -23.5t18.5 -6.5q6 0 16 2.5 t17 5.5zM311 121v56q-25 5 -53 5q-102 0 -102 -53q0 -45 58 -45q55 0 97 37z" />
<glyph unicode="b" horiz-adv-x="550" d="M53 68v647l132 35v-328q50 60 135 60q96 0 147.5 -70t51.5 -182q0 -109 -68 -177t-180 -68q-42 0 -79.5 8.5t-62 20.5t-42.5 24.5t-26 21.5zM181 325v-205q30 -27 95 -27q49 0 80 36.5t31 102.5q0 142 -107 142q-60 0 -99 -49z" />
<glyph unicode="c" horiz-adv-x="480" d="M419 156l44 -103q-8 -8 -22.5 -19t-65.5 -30t-108 -19q-110 0 -173 68t-63 182q0 107 62.5 177t179.5 70q51 0 93.5 -11t59.5 -23l17 -11l-45 -104q-37 33 -111 33q-59 0 -90 -36.5t-31 -93.5q0 -59 32 -97.5t87 -37.5q40 0 73.5 13.5t47.5 27.5z" />
<glyph unicode="d" horiz-adv-x="584" d="M563 110l16 -82q-43 -34 -103 -34q-76 0 -99 60h-1q-49 -69 -146 -69q-95 0 -146.5 70t-51.5 182q0 110 61 177.5t161 67.5q72 0 114 -32v265l132 35v-621q0 -17 5.5 -23.5t18.5 -6.5q7 0 16.5 2.5t15.5 5.5zM372 148v188q-33 36 -94 36q-51 0 -82.5 -35.5t-31.5 -98.5 q0 -143 110 -143q57 0 98 53z" />
<glyph unicode="e" horiz-adv-x="507" d="M471 203h-310q17 -110 122 -110q40 0 74.5 11t48.5 22l15 11l39 -84q-8 -8 -24 -19t-64.5 -30t-98.5 -19q-118 0 -180.5 71t-62.5 179q0 107 61 177t177 70q54 0 97 -21t67 -53.5t36 -67t12 -67.5q0 -19 -2 -36.5t-4 -25.5zM160 275h200v7q0 43 -25.5 71.5t-68.5 28.5 q-45 0 -72 -29t-34 -78z" />
<glyph unicode="f" horiz-adv-x="384" d="M225 0h-132v356h-76l18 112h58v80q0 203 182 203q34 0 64 -7.5t43 -15.5l14 -7l-36 -105q-25 15 -68 15q-67 0 -67 -85v-78h146v-112h-146v-356z" />
<glyph unicode="g" horiz-adv-x="519" d="M267 100h-22q-10 0 -22 -2t-26 -11t-14 -23q0 -17 20 -23t62 -6q241 0 241 -154q0 -73 -60.5 -115.5t-179.5 -42.5q-118 0 -180 40t-62 108q0 78 86 113q-45 24 -45 72q0 45 56 74q-91 49 -91 159q0 83 58.5 138t177.5 55q40 0 80 -10q53 13 53 174h122q0 -163 -94 -212 q67 -52 67 -145q0 -86 -60 -137.5t-167 -51.5zM361 283q0 41 -24.5 67t-72.5 26q-51 0 -76 -26t-25 -67q0 -90 103 -90q47 0 71 23.5t24 66.5zM200 -55q-48 -20 -48 -65q0 -64 114 -64q112 0 112 62q0 64 -114 64q-32 0 -64 3z" />
<glyph unicode="h" horiz-adv-x="565" d="M550 110l17 -82q-43 -34 -104 -34q-59 0 -83 28.5t-24 88.5v154q0 54 -17 76.5t-53 22.5q-46 0 -98 -52v-312h-132v715l132 35v-340q72 72 146 72q76 0 115 -46.5t39 -132.5v-174q0 -17 5 -23.5t18 -6.5q7 0 17 2.5t16 5.5z" />
<glyph unicode="i" horiz-adv-x="244" d="M188 0h-132v468h132v-468zM203 623q0 -35 -22 -56.5t-58 -21.5t-58.5 21.5t-22.5 56.5t22.5 56.5t58.5 21.5t58 -21.5t22 -56.5z" />
<glyph unicode="j" horiz-adv-x="244" d="M78 -271l-78 62q6 6 15.5 17.5t25 50t15.5 82.5v527h133v-525q0 -48 -11.5 -87.5t-27.5 -62t-32.5 -38t-27.5 -21.5zM204 623q0 -35 -22 -56.5t-58 -21.5t-58.5 21.5t-22.5 56.5t22.5 56.5t58.5 21.5t58 -21.5t22 -56.5z" />
<glyph unicode="k" horiz-adv-x="559" d="M528 114l27 -81q-42 -39 -109 -39q-102 0 -149 104l-36 72q-12 -2 -19 -2h-54v-168h-132v715l132 35v-477h58q106 0 106 195h132q0 -197 -93 -268l39 -71q17 -30 49 -30q11 0 23 3.5t19 7.5z" />
<glyph unicode="l" horiz-adv-x="283" d="M270 111l16 -84q-50 -33 -122 -33q-61 0 -85.5 28.5t-24.5 88.5v604l132 35v-618q0 -19 6 -26t21 -7q10 0 24 3t23 6z" />
<glyph unicode="m" horiz-adv-x="852" d="M838 110l16 -82q-43 -34 -103 -34q-59 0 -83.5 28.5t-24.5 88.5v154q0 53 -17 76t-52 23q-45 0 -90 -43q2 -16 2 -47v-274h-132v265q0 53 -17 76t-52 23q-47 0 -99 -52v-312h-132v443l132 35v-68q72 72 146 72q100 0 136 -82q64 82 154 82q75 0 114.5 -46.5t39.5 -132.5 v-174q0 -17 5 -23.5t18 -6.5q7 0 16.5 2.5t16.5 5.5z" />
<glyph unicode="n" horiz-adv-x="563" d="M549 110l16 -82q-43 -34 -103 -34q-59 0 -83.5 28.5t-24.5 88.5v154q0 52 -17 74t-52 22q-47 0 -99 -49v-312h-132v443l132 35v-68q72 72 146 72q76 0 115 -46.5t39 -132.5v-174q0 -30 23 -30q7 0 17 2.5t16 5.5z" />
<glyph unicode="o" horiz-adv-x="546" d="M516 232q0 -105 -64.5 -176t-178.5 -71t-178.5 71t-64.5 176q0 108 63.5 179t179.5 71t179.5 -71t63.5 -179zM273 95q52 0 81.5 38.5t29.5 99.5t-28.5 99.5t-82.5 38.5t-82 -38.5t-28 -99.5t29 -99.5t81 -38.5z" />
<glyph unicode="p" horiz-adv-x="555" d="M186 -263h-132v706l132 35v-60q47 64 139 64q95 0 146.5 -69.5t51.5 -182.5q0 -112 -60 -178.5t-158 -66.5q-75 0 -119 32v-280zM182 318v-188q32 -35 98 -35q50 0 80.5 35t30.5 99q0 143 -110 143q-60 0 -99 -54z" />
<glyph unicode="q" horiz-adv-x="549" d="M496 -263h-132v306q-49 -58 -135 -58q-94 0 -146 70.5t-52 181.5q0 109 68 177t181 68q41 0 78.5 -8.5t62 -21t42 -24.5t26 -20.5t7.5 -8.5v-662zM369 141v205q-31 28 -94 28q-51 0 -81.5 -36.5t-30.5 -102.5q0 -142 107 -142q56 0 99 48z" />
<glyph unicode="r" horiz-adv-x="394" d="M186 0h-132v443l132 35v-90q10 14 14 19.5t19.5 23t28.5 26t33 17t41 8.5q22 0 40 -5t25 -10l7 -5l-36 -115q-18 14 -64 14q-55 0 -108 -76v-285z" />
<glyph unicode="s" horiz-adv-x="480" d="M438 442l-31 -107q-6 4 -16.5 10.5t-48 17.5t-79.5 11q-78 0 -78 -50q0 -6 1.5 -11.5t5 -10t6 -7.5t9.5 -6t11 -4.5t13.5 -4t13.5 -3.5t16 -3t16 -3q29 -5 48.5 -10t46 -15.5t42 -24.5t27 -38t11.5 -54q0 -66 -53 -105t-156 -39q-42 0 -80 6.5t-62.5 15.5t-42.5 17.5 t-26 15.5l-8 6l40 94q7 -6 20.5 -14.5t58 -22.5t92.5 -14q33 0 52 11t19 31q0 17 -12.5 27.5t-28.5 15t-44 9.5q-8 1 -12 2q-31 6 -47.5 10t-43.5 15.5t-41.5 25.5t-26 38.5t-11.5 56.5q0 62 53 106.5t162 44.5q52 0 98 -10t66 -20z" />
<glyph unicode="t" horiz-adv-x="414" d="M368 130l36 -105q-6 -4 -18 -11t-50.5 -18t-78.5 -11q-165 0 -165 173v198h-76l18 113h58v106l132 35v-141h148v-113h-148v-180q0 -38 14 -54.5t46 -16.5q23 0 44 6.5t30 12.5z" />
<glyph unicode="u" horiz-adv-x="565" d="M544 110l16 -82q-43 -34 -103 -34q-80 0 -100 63h-1q-61 -72 -153 -72q-75 0 -114.5 46.5t-39.5 132.5v288l132 23v-274q0 -53 17 -75.5t52 -22.5q51 0 99 45v295l132 35v-349q0 -30 23 -30q7 0 17 2.5t17 5.5z" />
<glyph unicode="v" horiz-adv-x="534" d="M341 0h-148l-186 468h156l104 -335l104 335h156z" />
<glyph unicode="w" horiz-adv-x="759" d="M595 0h-154l-62 274l-60 -274h-154l-153 468h145l82 -339l79 339h121l81 -340l83 340h144z" />
<glyph unicode="x" horiz-adv-x="532" d="M524 0h-159l-98 154l-99 -154h-159l166 229l-164 239h159l94 -159l98 159h159l-167 -232z" />
<glyph unicode="y" horiz-adv-x="518" d="M232 -263h-135l104 263h-16l-176 468h146l106 -331l103 331h147z" />
<glyph unicode="z" horiz-adv-x="501" d="M463 0h-424v100l241 256h-241v112h424v-95l-241 -260h241v-113z" />
<glyph unicode="{" horiz-adv-x="345" d="M313 -167v-116q-101 0 -159 47.5t-58 166.5v187q0 62 -55 62h-15v114h15q23 0 39 15t16 48v176q0 120 58 168.5t159 48.5v-116q-91 0 -91 -104v-204q0 -29 -12 -49.5t-22 -27t-20 -8.5q9 -3 19.5 -9t22.5 -26.5t12 -49.5v-219q0 -56 23.5 -80t67.5 -24z" />
<glyph unicode="|" horiz-adv-x="253" d="M189 -297h-125v1061h125v-1061z" />
<glyph unicode="}" horiz-adv-x="345" d="M32 -283v116q45 0 68.5 24t23.5 80v219q0 29 11.5 49.5t22 27t19.5 8.5q-9 2 -19.5 8.5t-22 27t-11.5 49.5v204q0 104 -92 104v116q101 0 159 -48.5t58 -168.5v-176q0 -33 16 -48t39 -15h15v-114h-15q-55 0 -55 -62v-187q0 -119 -58 -166.5t-159 -47.5z" />
<glyph unicode="~" horiz-adv-x="487" d="M375 410l73 -43q-2 -4 -5 -11t-15.5 -24t-27 -30t-38.5 -24t-51 -11q-34 0 -73 27.5t-62 27.5q-19 0 -36.5 -12.5t-25.5 -25.5l-7 -12l-67 56q2 3 5 9t15 21t26 26t38.5 20.5t51.5 9.5q37 0 79.5 -27.5t57.5 -27.5q17 0 32.5 12.5t22.5 25.5z" />
<glyph unicode="&#xa1;" horiz-adv-x="259" d="M218 396q0 -35 -25.5 -60.5t-62.5 -25.5q-36 0 -61.5 25t-25.5 61q0 35 25 60t62 25t62.5 -25t25.5 -60zM208 -234h-158l21 482h115z" />
<glyph unicode="&#xa2;" horiz-adv-x="487" d="M415 156l45 -103q-3 -3 -8.5 -7.5t-24 -16t-39.5 -20.5t-54.5 -16.5t-69.5 -7.5q-111 0 -174 68t-63 182q0 107 63 177t180 70q51 0 93.5 -11t59.5 -23l17 -11l-45 -104q-37 33 -112 33q-58 0 -89 -36.5t-31 -93.5q0 -59 31.5 -97.5t87.5 -37.5q40 0 73 13.5t47 27.5z M323 525h-81l-19 197h118zM341 -264h-118l19 197h81z" />
<glyph unicode="&#xa3;" horiz-adv-x="574" d="M442 247h-153q0 -3 0.5 -8.5t0.5 -8.5q0 -57 -44 -105h292v-125h-458v125l7.5 5t16.5 13.5t21 21.5t16.5 29t7.5 36q0 5 -2 17h-110v89h71q-50 87 -50 168q0 90 64.5 149.5t179.5 59.5q65 0 122 -17.5t82 -35.5l25 -17l-53 -115q-6 7 -18.5 16.5t-55 26t-90.5 16.5 q-54 0 -81 -28t-27 -70q0 -32 9 -63t16 -45.5t24 -44.5h187v-89z" />
<glyph unicode="&#xa5;" horiz-adv-x="708" d="M127 132v83h157v42l-263 443h164l169 -305l170 305h163l-263 -444v-41h148v-83h-148v-132h-140v132h-157zM245 275l-53 83h-103v-83h156zM462 275l53 83h103v-83h-156z" />
<glyph unicode="&#xa6;" horiz-adv-x="256" d="M191 336h-125v428h125v-428zM191 -297h-125v460h125v-460z" />
<glyph unicode="&#xa7;" horiz-adv-x="642" d="M601 196q0 -86 -58 -141q58 -49 58 -142q0 -94 -72 -153t-205 -58q-59 0 -110.5 10.5t-83.5 25t-55 29.5t-33 25l-9 10l60 111q3 -3 9.5 -9t29 -20.5t47.5 -26t64.5 -20.5t80.5 -9q62 0 96 21.5t34 59.5q0 37 -26.5 54.5t-111.5 35.5q-48 10 -80.5 19t-70.5 26.5t-60 39 t-37.5 55.5t-15.5 78q-2 86 61 143q-61 53 -61 140q-1 90 70 151.5t199 61.5q76 0 144.5 -17.5t98.5 -35.5l30 -17l-48 -121q-9 7 -26 17.5t-75 28t-123 17.5q-63 0 -93 -21t-30 -56q0 -39 37.5 -59t106.5 -36q137 -26 197.5 -72.5t60.5 -144.5zM316 282l-57 12 q-60 -17 -60 -69q0 -39 37.5 -59t106.5 -36l49 -11q62 20 62 73q0 37 -26.5 54t-111.5 36z" />
<glyph unicode="&#xa8;" horiz-adv-x="391" d="M171 609q0 -31 -22.5 -53t-54.5 -22q-31 0 -53.5 22t-22.5 53q0 30 22.5 52.5t53.5 22.5q32 0 54.5 -22.5t22.5 -52.5zM372 609q0 -31 -22.5 -53t-54.5 -22t-54.5 22t-22.5 53q0 30 22.5 52.5t54.5 22.5q31 0 54 -22.5t23 -52.5z" />
<glyph unicode="&#xa9;" d="M442 352l35 -58q-7 -6 -18.5 -15t-49 -24t-74.5 -15q-82 0 -124 52.5t-42 132.5q0 81 43.5 130t122.5 49q34 0 65 -10t44 -20l14 -11l-34 -61q-33 31 -89 31q-90 0 -90 -108q0 -48 23 -81t67 -33q31 0 58 10.5t38 20.5zM622 428q0 -136 -74 -227t-214 -91q-143 0 -218 91 t-75 227t75.5 222t217.5 86q140 0 214 -86.5t74 -221.5zM334 180q106 0 160.5 70t54.5 178q0 104 -57.5 170t-157.5 66q-102 0 -161 -65t-59 -171q0 -110 56.5 -179t163.5 -69z" />
<glyph unicode="&#xaa;" horiz-adv-x="355" d="M303 524l6 -44q-22 -11 -46 -11q-37 0 -47 28h-1q-29 -33 -75 -33q-41 0 -62 19t-21 48q0 37 27.5 55t90.5 18q17 0 37 -2v18q0 19 -10.5 27t-39.5 8q-21 0 -39.5 -3.5t-26.5 -6.5l-8 -3l-15 52q34 19 90 19q108 0 108 -87v-90q0 -17 13 -17zM298 365h-243v63h243v-63z M212 538v22q-15 3 -36 3q-35 0 -48 -6.5t-13 -20.5q0 -22 31 -22q32 0 66 24z" />
<glyph unicode="&#xab;" horiz-adv-x="549" d="M295 51l-68 -69l-191 191v89l191 190l67 -68l-142 -167zM515 51l-68 -69l-191 191v89l191 190l67 -68l-142 -167z" />
<glyph unicode="&#xac;" horiz-adv-x="508" d="M449 93h-99v134h-296v99h395v-233z" />
<glyph unicode="&#xad;" horiz-adv-x="380" d="M325 222h-271v119h271v-119z" />
<glyph unicode="&#xae;" d="M622 428q0 -136 -74 -227t-214 -91q-143 0 -218 91t-75 227t75.5 222t217.5 86q140 0 214 -86.5t74 -221.5zM334 180q106 0 160.5 70t54.5 178q0 104 -57.5 170t-157.5 66q-102 0 -161 -65t-59 -171q0 -110 56.5 -179t163.5 -69zM484 313l15 -51q-21 -16 -50 -16 q-59 0 -80 45l-38 85q-7 -1 -17 -1h-30v-126h-74v350h125q120 0 120 -108q0 -78 -54 -102l30 -64q9 -20 28 -20q8 0 14 2t9 4zM284 442h40q29 0 42 11t13 36q0 43 -44 43h-51v-90z" />
<glyph unicode="&#xaf;" horiz-adv-x="249" d="M230 548h-205v99h205v-99z" />
<glyph unicode="&#xb0;" horiz-adv-x="365" d="M326 617q0 -70 -38 -112t-105 -42t-105.5 42.5t-38.5 111.5t38 110t106 41t105.5 -41t37.5 -110zM183 540q30 0 46.5 20.5t16.5 56.5q0 33 -17 52t-46 19t-45.5 -19t-16.5 -52q0 -36 16 -56.5t46 -20.5z" />
<glyph unicode="&#xb1;" horiz-adv-x="443" d="M386 314h-113v-122h-95v122h-123v100h123v135h96l-1 -135h113v-100zM386 57h-331v100h331v-100z" />
<glyph unicode="&#xb2;" horiz-adv-x="362" d="M306 356h-248v61l95 76q4 4 18.5 16t20 17t14 15.5t12 21t3.5 22.5q0 19 -14 31t-40 12q-28 0 -52.5 -8t-35.5 -16l-11 -9l-26 73q6 5 16.5 12.5t45 20t69.5 12.5q62 0 98 -33t36 -85q0 -44 -17.5 -72.5t-54.5 -61.5l-30 -26h101v-79z" />
<glyph unicode="&#xb3;" horiz-adv-x="350" d="M132 498v73q24 0 39 1.5t28.5 10t13.5 24.5q0 28 -49 28q-24 0 -46.5 -8.5t-33.5 -16.5l-10 -8l-26 66q6 5 16 12.5t41 20t62 12.5q60 0 95.5 -25.5t35.5 -65.5q0 -73 -66 -86q77 -12 77 -87q0 -45 -38.5 -73t-101.5 -28q-36 0 -69 13.5t-48 26.5l-14 14l28 65 q4 -5 11.5 -11.5t33.5 -18t55 -11.5q58 0 58 31q0 41 -92 41z" />
<glyph unicode="&#xb4;" horiz-adv-x="297" d="M151 547h-121l81 204h157z" />
<glyph unicode="&#xb5;" horiz-adv-x="529" d="M552 110l16 -82q-43 -34 -103 -34q-81 0 -100 63h-1q-61 -72 -153 -72q-4 0 -11.5 0.5t-10.5 0.5v-249h-132v715l132 23v-274q0 -53 17 -75.5t52 -22.5q51 0 99 45v295l132 35v-349q0 -30 23 -30q7 0 17 2.5t17 5.5z" />
<glyph unicode="&#xb6;" horiz-adv-x="735" d="M423 0h-140v228h-13q-115 0 -178 59t-63 178q0 118 63 176.5t178 58.5h153v-700zM661 0h-140v700h140v-700z" />
<glyph unicode="&#xb7;" horiz-adv-x="274" d="M230 313q0 -37 -27 -63t-66 -26t-66 26t-27 63q0 38 27 64t66 26t66 -26t27 -64z" />
<glyph unicode="&#xb8;" horiz-adv-x="223" d="M25 -166l19 49q19 -16 56 -16q32 0 32 21q0 28 -79 28l28 85h65l-15 -41q27 -2 47 -19.5t20 -52.5q0 -36 -25 -58t-68 -22q-21 0 -41 6.5t-30 13.5z" />
<glyph unicode="&#xb9;" horiz-adv-x="311" d="M252 356h-85v262l-114 -75l-37 64q150 99 151 99h85v-350z" />
<glyph unicode="&#xba;" horiz-adv-x="357" d="M237 587q0 30 -14.5 48.5t-44.5 18.5t-44.5 -18.5t-14.5 -48.5q0 -29 15 -46.5t44 -17.5q59 0 59 64zM300 428v-63h-244v63h244zM297 587q0 -53 -31.5 -88t-87.5 -35t-87 35t-31 88q0 55 29.5 90.5t88.5 35.5q58 0 88.5 -35.5t30.5 -90.5z" />
<glyph unicode="&#xbb;" horiz-adv-x="549" d="M513 173l-190 -191l-69 69l142 166l-141 167l68 68l190 -190v-89zM293 173l-191 -191l-68 69l142 166l-141 167l67 68l191 -190v-89z" />
<glyph unicode="&#xbc;" horiz-adv-x="710" d="M642 -3h-79v76h-162v65l98 206h80l-89 -197h73v74h79v-74h35v-74h-35v-76zM259 356h-85v262l-113 -75l-36 64q148 99 149 99h85v-350zM189 -15h-112l449 728h112z" />
<glyph unicode="&#xbd;" horiz-adv-x="741" d="M259 356h-85v262l-113 -75l-36 64q148 99 149 99h85v-350zM189 -15h-112l449 728h112zM699 0h-248v61l96 76q5 4 16 13.5t16 14t13 13t12 15.5t7 16.5t3 19.5q0 19 -14 31t-40 12q-28 0 -52.5 -8t-35.5 -16l-11 -9l-26 73q6 5 17 12.5t45 20t69 12.5q62 0 98 -33t36 -85 q0 -45 -17.5 -73t-54.5 -61l-30 -26h101v-79z" />
<glyph unicode="&#xbe;" horiz-adv-x="715" d="M209 -15h-113l449 728h113zM124 498v73q25 0 39.5 1.5t27.5 10t13 24.5q0 28 -48 28q-24 0 -46.5 -8.5t-33.5 -16.5l-10 -8l-26 66q6 5 16 12.5t41 20t63 12.5q59 0 94 -25.5t35 -65.5q0 -73 -65 -86q77 -12 77 -87q0 -45 -38 -73t-102 -28q-36 0 -69 13.5t-48 26.5 l-15 14l29 65q4 -5 11.5 -11.5t33.5 -18t55 -11.5q58 0 58 31q0 41 -92 41zM648 -3h-79v76h-162v65l98 206h80l-89 -197h73v74h79v-74h35v-74h-35v-76z" />
<glyph unicode="&#xbf;" horiz-adv-x="521" d="M443 -53l58 -112q-10 -9 -29.5 -22.5t-81.5 -36t-127 -22.5q-110 0 -171 60t-61 156q0 47 18.5 88.5t45 67t53 44.5t44.5 27l19 8v57h122v-129q-6 -2 -17 -5.5t-38 -17t-47.5 -30.5t-37.5 -46.5t-17 -63.5q0 -39 28 -64.5t74 -25.5q44 0 85 17t61 33zM363 397 q0 -35 -25.5 -60.5t-61.5 -25.5q-37 0 -62.5 25.5t-25.5 60.5t25.5 60t62.5 25t62 -25t25 -60z" />
<glyph unicode="&#xc0;" d="M658 0h-149l-50 155h-256l-49 -155h-149l249 700h155zM418 272l-87 272l-87 -272h174zM388 754h-122l-116 204h156z" />
<glyph unicode="&#xc1;" d="M658 0h-149l-50 155h-256l-49 -155h-149l249 700h155zM418 272l-87 272l-87 -272h174zM394 753h-121l81 204h157z" />
<glyph unicode="&#xc2;" d="M497 754h-104l-62 112l-62 -112h-103l96 204h139zM658 0h-149l-50 155h-256l-49 -155h-149l249 700h155zM418 272l-87 272l-87 -272h174z" />
<glyph unicode="&#xc3;" d="M658 0h-149l-50 155h-256l-49 -155h-149l249 700h155zM418 272l-87 272l-87 -272h174zM461 895l73 -43q-2 -4 -5 -10.5t-15.5 -24t-27 -30.5t-38.5 -23.5t-51 -10.5q-34 0 -73 27.5t-62 27.5q-19 0 -36.5 -12.5t-25.5 -25.5l-7 -12l-67 55q2 4 5 9.5t15 20.5t26 26.5 t38.5 21t51.5 9.5q37 0 79 -28t57 -28q18 0 34 13t22 25z" />
<glyph unicode="&#xc4;" d="M306 828q0 -31 -22.5 -53t-54.5 -22q-31 0 -53.5 22t-22.5 53q0 30 22.5 52.5t53.5 22.5q32 0 54.5 -22.5t22.5 -52.5zM507 828q0 -31 -22.5 -53t-54.5 -22t-54.5 22t-22.5 53q0 30 22.5 52.5t54.5 22.5q31 0 54 -22.5t23 -52.5zM658 0h-149l-50 155h-256l-49 -155h-149 l249 700h155zM418 272l-87 272l-87 -272h174z" />
<glyph unicode="&#xc5;" d="M658 0h-149l-50 155h-256l-49 -155h-149l249 700h155zM418 272l-87 272l-87 -272h174zM330 746q-36 0 -58.5 23.5t-22.5 61.5t22.5 61.5t58.5 23.5q35 0 57.5 -24t22.5 -61t-22.5 -61t-57.5 -24zM353 831q0 27 -23 27q-24 0 -24 -27t24 -27q23 0 23 27z" />
<glyph unicode="&#xc6;" horiz-adv-x="1011" d="M971 0h-511v155h-228l-83 -155h-149l393 700h578v-125h-371v-170h292v-114h-292v-166h371v-125zM460 272v292l-155 -292h155z" />
<glyph unicode="&#xc7;" horiz-adv-x="683" d="M303 -166l19 49q19 -16 56 -16q32 0 32 21q0 28 -79 28l23 71q-163 13 -240.5 114t-77.5 255q0 164 94 260.5t268 96.5q74 0 133.5 -16.5t82.5 -32.5l23 -17l-53 -120l-6.5 6.5t-21 14.5t-36 18t-52.5 14.5t-70 6.5q-96 0 -156.5 -63t-60.5 -168q0 -110 55.5 -177.5 t167.5 -67.5q60 0 117 20.5t85 40.5l27 21l38 -120q-4 -3 -10.5 -8.5t-30.5 -20t-51 -25.5t-70.5 -21t-90.5 -12l-9 -26q27 -2 47 -19.5t20 -52.5q0 -36 -25 -58t-68 -22q-21 0 -41 6.5t-30 13.5z" />
<glyph unicode="&#xc8;" horiz-adv-x="622" d="M582 0h-512v700h512v-125h-371v-170h292v-114h-292v-166h371v-125zM392 754h-122l-116 204h156z" />
<glyph unicode="&#xc9;" horiz-adv-x="622" d="M374 753h-121l81 204h157zM582 0h-512v700h512v-125h-371v-170h292v-114h-292v-166h371v-125z" />
<glyph unicode="&#xca;" horiz-adv-x="622" d="M495 754h-104l-62 112l-62 -112h-103l96 204h139zM582 0h-512v700h512v-125h-371v-170h292v-114h-292v-166h371v-125z" />
<glyph unicode="&#xcb;" horiz-adv-x="622" d="M306 828q0 -31 -22.5 -53t-54.5 -22q-31 0 -53.5 22t-22.5 53q0 30 22.5 52.5t53.5 22.5q32 0 54.5 -22.5t22.5 -52.5zM507 828q0 -31 -22.5 -53t-54.5 -22t-54.5 22t-22.5 53q0 30 22.5 52.5t54.5 22.5q31 0 54 -22.5t23 -52.5zM582 0h-512v700h512v-125h-371v-170h292 v-114h-292v-166h371v-125z" />
<glyph unicode="&#xcc;" horiz-adv-x="281" d="M211 0h-141v700h141v-700zM204 754h-122l-116 204h156z" />
<glyph unicode="&#xcd;" horiz-adv-x="281" d="M211 0h-141v700h141v-700zM200 754h-121l81 204h157z" />
<glyph unicode="&#xce;" horiz-adv-x="281" d="M306 755h-104l-62 112l-62 -112h-103l96 204h139zM211 0h-141v700h141v-700z" />
<glyph unicode="&#xcf;" horiz-adv-x="281" d="M117 828q0 -31 -22.5 -53t-54.5 -22q-31 0 -53.5 22t-22.5 53q0 30 22.5 52.5t53.5 22.5q32 0 54.5 -22.5t22.5 -52.5zM318 828q0 -31 -22.5 -53t-54.5 -22t-54.5 22t-22.5 53q0 30 22.5 52.5t54.5 22.5q31 0 54 -22.5t23 -52.5zM211 0h-141v700h141v-700z" />
<glyph unicode="&#xd0;" horiz-adv-x="709" d="M333 0h-258v288h-57v104h57v308h258q164 0 251 -90.5t87 -263.5q0 -170 -89.5 -258t-248.5 -88zM216 125h102q106 -1 159 52t53 169q0 119 -53 174t-162 55h-99v-183h97v-104h-97v-163z" />
<glyph unicode="&#xd1;" horiz-adv-x="703" d="M481 895l73 -43q-2 -4 -5 -10.5t-15.5 -24t-27 -30.5t-38.5 -23.5t-51 -10.5q-34 0 -73 27.5t-62 27.5q-19 0 -36.5 -12.5t-25.5 -25.5l-7 -12l-67 55q2 4 5 9.5t15 20.5t26 26.5t38.5 21t51.5 9.5q37 0 79 -28t57 -28q18 0 34 13t22 25zM632 0h-110l-311 449v-449h-141 v700h112l310 -462v462h140v-700z" />
<glyph unicode="&#xd2;" horiz-adv-x="767" d="M453 754h-122l-116 204h156zM732 351q0 -158 -89.5 -262t-258.5 -104q-115 0 -195.5 51t-117 132t-36.5 183q0 163 93.5 262.5t255.5 99.5q161 0 254.5 -99.5t93.5 -262.5zM590 351q0 107 -55.5 171.5t-150.5 64.5q-96 0 -151.5 -64.5t-55.5 -171.5q0 -106 51.5 -173 t155.5 -67q103 0 154.5 67.5t51.5 172.5z" />
<glyph unicode="&#xd3;" horiz-adv-x="767" d="M439 754h-121l81 204h157zM732 351q0 -158 -89.5 -262t-258.5 -104q-115 0 -195.5 51t-117 132t-36.5 183q0 163 93.5 262.5t255.5 99.5q161 0 254.5 -99.5t93.5 -262.5zM590 351q0 107 -55.5 171.5t-150.5 64.5q-96 0 -151.5 -64.5t-55.5 -171.5q0 -106 51.5 -173 t155.5 -67q103 0 154.5 67.5t51.5 172.5z" />
<glyph unicode="&#xd4;" horiz-adv-x="767" d="M549 754h-104l-62 112l-62 -112h-103l96 204h139zM732 351q0 -158 -89.5 -262t-258.5 -104q-115 0 -195.5 51t-117 132t-36.5 183q0 163 93.5 262.5t255.5 99.5q161 0 254.5 -99.5t93.5 -262.5zM590 351q0 107 -55.5 171.5t-150.5 64.5q-96 0 -151.5 -64.5t-55.5 -171.5 q0 -106 51.5 -173t155.5 -67q103 0 154.5 67.5t51.5 172.5z" />
<glyph unicode="&#xd5;" horiz-adv-x="767" d="M732 351q0 -158 -89.5 -262t-258.5 -104q-115 0 -195.5 51t-117 132t-36.5 183q0 163 93.5 262.5t255.5 99.5q161 0 254.5 -99.5t93.5 -262.5zM590 351q0 107 -55.5 171.5t-150.5 64.5q-96 0 -151.5 -64.5t-55.5 -171.5q0 -106 51.5 -173t155.5 -67q103 0 154.5 67.5 t51.5 172.5zM513 897l73 -43q-2 -4 -5 -10.5t-15.5 -24t-27 -30.5t-38.5 -23.5t-51 -10.5q-34 0 -73 27.5t-62 27.5q-19 0 -36.5 -12.5t-25.5 -25.5l-7 -12l-67 55q2 4 5 9.5t15 20.5t26 26.5t38.5 21t51.5 9.5q37 0 79 -28t57 -28q18 0 34 13t22 25z" />
<glyph unicode="&#xd6;" horiz-adv-x="767" d="M360 828q0 -31 -22.5 -53t-54.5 -22q-31 0 -53.5 22t-22.5 53q0 30 22.5 52.5t53.5 22.5q32 0 54.5 -22.5t22.5 -52.5zM561 828q0 -31 -22.5 -53t-54.5 -22t-54.5 22t-22.5 53q0 30 22.5 52.5t54.5 22.5q31 0 54 -22.5t23 -52.5zM732 351q0 -158 -89.5 -262t-258.5 -104 q-115 0 -195.5 51t-117 132t-36.5 183q0 163 93.5 262.5t255.5 99.5q161 0 254.5 -99.5t93.5 -262.5zM590 351q0 107 -55.5 171.5t-150.5 64.5q-96 0 -151.5 -64.5t-55.5 -171.5q0 -106 51.5 -173t155.5 -67q103 0 154.5 67.5t51.5 172.5z" />
<glyph unicode="&#xd7;" horiz-adv-x="492" d="M361 82l-115 122l-115 -122l-84 84l115 123l-115 122l84 84l115 -122l115 122l84 -84l-115 -122l115 -123z" />
<glyph unicode="&#xd8;" horiz-adv-x="767" d="M732 351q0 -158 -89.5 -262t-258.5 -104q-22 0 -58 4l-36 -138h-70l39 152q-111 35 -167.5 128.5t-56.5 219.5q0 163 93.5 262.5t255.5 99.5q22 0 60 -4l24 90h70l-28 -105q105 -35 163.5 -125.5t58.5 -217.5zM177 351q0 -79 28.5 -137.5t86.5 -84.5l120 456q-18 2 -28 2 q-96 0 -151.5 -64.5t-55.5 -171.5zM590 351q0 76 -30 132.5t-83 82.5l-119 -454q8 -1 26 -1q103 0 154.5 67.5t51.5 172.5z" />
<glyph unicode="&#xd9;" horiz-adv-x="686" d="M482 291v409h140v-404q0 -167 -66.5 -238t-213.5 -73q-145 1 -211.5 72.5t-66.5 238.5v404h140v-409q0 -98 32.5 -141t105.5 -43q74 0 107 42t33 142zM401 755h-122l-116 204h156z" />
<glyph unicode="&#xda;" horiz-adv-x="686" d="M389 754h-121l81 204h157zM482 291v409h140v-404q0 -167 -66.5 -238t-213.5 -73q-145 1 -211.5 72.5t-66.5 238.5v404h140v-409q0 -98 32.5 -141t105.5 -43q74 0 107 42t33 142z" />
<glyph unicode="&#xdb;" horiz-adv-x="686" d="M507 754h-104l-62 112l-62 -112h-103l96 204h139zM482 291v409h140v-404q0 -167 -66.5 -238t-213.5 -73q-145 1 -211.5 72.5t-66.5 238.5v404h140v-409q0 -98 32.5 -141t105.5 -43q74 0 107 42t33 142z" />
<glyph unicode="&#xdc;" horiz-adv-x="686" d="M319 828q0 -31 -22.5 -53t-54.5 -22q-31 0 -53.5 22t-22.5 53q0 30 22.5 52.5t53.5 22.5q32 0 54.5 -22.5t22.5 -52.5zM520 828q0 -31 -22.5 -53t-54.5 -22t-54.5 22t-22.5 53q0 30 22.5 52.5t54.5 22.5q31 0 54 -22.5t23 -52.5zM482 291v409h140v-404q0 -167 -66.5 -238 t-213.5 -73q-145 1 -211.5 72.5t-66.5 238.5v404h140v-409q0 -98 32.5 -141t105.5 -43q74 0 107 42t33 142z" />
<glyph unicode="&#xdd;" horiz-adv-x="674" d="M407 0h-140v257l-263 443h165l168 -305l170 305h163l-263 -444v-256zM387 734h-121l81 204h157z" />
<glyph unicode="&#xde;" horiz-adv-x="654" d="M361 101h-150v-101h-141v700h141v-92h150q126 0 196.5 -64.5t70.5 -192.5q0 -125 -70.5 -187.5t-196.5 -62.5zM211 225h150q125 0 125 126q0 69 -31 101t-94 32h-150v-259z" />
<glyph unicode="&#xdf;" horiz-adv-x="664" d="M225 0h-133v356h-75l18 112h57v83q0 102 56 151t155 49q101 0 158.5 -47.5t57.5 -140.5q0 -42 -13.5 -75t-30.5 -50t-30.5 -37.5t-13.5 -39.5q0 -23 22.5 -39t54.5 -29.5t63.5 -31.5t54 -54t22.5 -87q0 -63 -52.5 -99t-143.5 -36q-56 0 -101 17t-62 34l-17 16l39 93 q6 -5 16.5 -12t43.5 -19t68 -12q29 0 44.5 13t15.5 33q0 26 -20.5 43.5t-49.5 29.5t-58 27t-49.5 43.5t-20.5 69.5q0 31 20.5 59t41 60.5t20.5 74.5q0 37 -22.5 56.5t-58.5 19.5t-56.5 -21.5t-20.5 -61.5v-548z" />
<glyph unicode="&#xe0;" horiz-adv-x="521" d="M506 110l16 -82q-43 -34 -103 -34q-79 0 -98 59h-1q-62 -68 -152 -68q-65 0 -104.5 34t-39.5 99q0 62 55 97.5t173 35.5q35 0 59 -6v47q0 44 -23 62t-78 18q-33 0 -67 -7t-51 -14l-18 -7l-22 107q80 31 192 31q199 0 199 -164v-189q0 -17 5.5 -23.5t18.5 -6.5q6 0 16 2.5 t17 5.5zM311 121v56q-25 5 -53 5q-102 0 -102 -53q0 -45 58 -45q55 0 97 37zM323 547h-122l-116 204h156z" />
<glyph unicode="&#xe1;" horiz-adv-x="521" d="M506 110l16 -82q-43 -34 -103 -34q-79 0 -98 59h-1q-62 -68 -152 -68q-65 0 -104.5 34t-39.5 99q0 62 55 97.5t173 35.5q35 0 59 -6v47q0 44 -23 62t-78 18q-33 0 -67 -7t-51 -14l-18 -7l-22 107q80 31 192 31q199 0 199 -164v-189q0 -17 5.5 -23.5t18.5 -6.5q6 0 16 2.5 t17 5.5zM311 121v56q-25 5 -53 5q-102 0 -102 -53q0 -45 58 -45q55 0 97 37zM294 547h-121l81 204h157z" />
<glyph unicode="&#xe2;" horiz-adv-x="521" d="M424 547h-104l-62 112l-62 -112h-103l96 204h139zM506 110l16 -82q-43 -34 -103 -34q-79 0 -98 59h-1q-62 -68 -152 -68q-65 0 -104.5 34t-39.5 99q0 62 55 97.5t173 35.5q35 0 59 -6v47q0 44 -23 62t-78 18q-33 0 -67 -7t-51 -14l-18 -7l-22 107q80 31 192 31 q199 0 199 -164v-189q0 -17 5.5 -23.5t18.5 -6.5q6 0 16 2.5t17 5.5zM311 121v56q-25 5 -53 5q-102 0 -102 -53q0 -45 58 -45q55 0 97 37z" />
<glyph unicode="&#xe3;" horiz-adv-x="521" d="M506 110l16 -82q-43 -34 -103 -34q-79 0 -98 59h-1q-62 -68 -152 -68q-65 0 -104.5 34t-39.5 99q0 62 55 97.5t173 35.5q35 0 59 -6v47q0 44 -23 62t-78 18q-33 0 -67 -7t-51 -14l-18 -7l-22 107q80 31 192 31q199 0 199 -164v-189q0 -17 5.5 -23.5t18.5 -6.5q6 0 16 2.5 t17 5.5zM311 121v56q-25 5 -53 5q-102 0 -102 -53q0 -45 58 -45q55 0 97 37zM384 672l73 -43q-2 -4 -5 -10.5t-15.5 -24t-27 -30.5t-38.5 -23.5t-51 -10.5q-34 0 -73 27.5t-62 27.5q-19 0 -36.5 -12.5t-24.5 -24.5l-8 -13l-67 55q2 4 5 9.5t15 20.5t26 26.5t38.5 21 t51.5 9.5q37 0 79 -28t57 -28q18 0 34 12.5t23 25.5z" />
<glyph unicode="&#xe4;" horiz-adv-x="521" d="M228 609q0 -31 -22.5 -53t-54.5 -22q-31 0 -53.5 22t-22.5 53q0 30 22.5 52.5t53.5 22.5q32 0 54.5 -22.5t22.5 -52.5zM429 609q0 -31 -22.5 -53t-54.5 -22t-54.5 22t-22.5 53q0 30 22.5 52.5t54.5 22.5q31 0 54 -22.5t23 -52.5zM506 110l16 -82q-43 -34 -103 -34 q-79 0 -98 59h-1q-62 -68 -152 -68q-65 0 -104.5 34t-39.5 99q0 62 55 97.5t173 35.5q35 0 59 -6v47q0 44 -23 62t-78 18q-33 0 -67 -7t-51 -14l-18 -7l-22 107q80 31 192 31q199 0 199 -164v-189q0 -17 5.5 -23.5t18.5 -6.5q6 0 16 2.5t17 5.5zM311 121v56q-25 5 -53 5 q-102 0 -102 -53q0 -45 58 -45q55 0 97 37z" />
<glyph unicode="&#xe5;" horiz-adv-x="521" d="M506 110l16 -82q-43 -34 -103 -34q-79 0 -98 59h-1q-62 -68 -152 -68q-65 0 -104.5 34t-39.5 99q0 62 55 97.5t173 35.5q35 0 59 -6v47q0 44 -23 62t-78 18q-33 0 -67 -7t-51 -14l-18 -7l-22 107q80 31 192 31q199 0 199 -164v-189q0 -17 5.5 -23.5t18.5 -6.5q6 0 16 2.5 t17 5.5zM311 121v56q-25 5 -53 5q-102 0 -102 -53q0 -45 58 -45q55 0 97 37zM245 522q-36 0 -58.5 23.5t-22.5 61.5t22.5 61.5t58.5 23.5q35 0 57.5 -24t22.5 -61t-22.5 -61t-57.5 -24zM268 607q0 27 -23 27q-24 0 -24 -27t24 -27q23 0 23 27z" />
<glyph unicode="&#xe6;" horiz-adv-x="793" d="M707 137l39 -84q-8 -8 -24 -19t-64.5 -30t-98.5 -19q-124 0 -190 83q-74 -83 -201 -83q-65 0 -104.5 34t-39.5 99q0 62 55 97.5t173 35.5q35 0 59 -6v47q0 44 -23 62t-78 18q-33 0 -67 -7t-51 -14l-18 -7l-22 107q80 31 192 31q106 0 155 -57q60 57 155 57q54 0 97 -21 t67 -53.5t36 -67t12 -67.5q0 -19 -2 -36.5t-4 -25.5l-2 -8h-311q17 -110 122 -110q40 0 74.5 11t48.5 22zM322 176q-24 6 -64 6q-102 0 -102 -53q0 -45 58 -45q73 0 118 47q-8 27 -10 45zM646 275v6q0 44 -25 72.5t-68 28.5q-45 0 -72.5 -28.5t-35.5 -78.5h201z" />
<glyph unicode="&#xe7;" horiz-adv-x="480" d="M184 -166l19 49q19 -16 56 -16q32 0 32 21q0 28 -79 28l23 71q-96 10 -150 76.5t-54 171.5q0 107 62.5 177t179.5 70q51 0 93.5 -11t59.5 -23l17 -11l-45 -104q-37 33 -111 33q-59 0 -90 -36.5t-31 -93.5q0 -59 32 -97.5t87 -37.5q40 0 73.5 13.5t47.5 27.5l13 14 l44 -103q-6 -6 -18.5 -15.5t-55 -28t-90.5 -22.5l-9 -27q27 -2 47 -19.5t20 -52.5q0 -36 -25 -58t-68 -22q-21 0 -41 6.5t-29 13.5z" />
<glyph unicode="&#xe8;" horiz-adv-x="507" d="M471 203h-310q17 -110 122 -110q40 0 74.5 11t48.5 22l15 11l39 -84q-8 -8 -24 -19t-64.5 -30t-98.5 -19q-118 0 -180.5 71t-62.5 179q0 107 61 177t177 70q54 0 97 -21t67 -53.5t36 -67t12 -67.5q0 -19 -2 -36.5t-4 -25.5zM160 275h200v7q0 43 -25.5 71.5t-68.5 28.5 q-45 0 -72 -29t-34 -78zM337 547h-122l-116 204h156z" />
<glyph unicode="&#xe9;" horiz-adv-x="507" d="M316 547h-121l81 204h157zM471 203h-310q17 -110 122 -110q40 0 74.5 11t48.5 22l15 11l39 -84q-8 -8 -24 -19t-64.5 -30t-98.5 -19q-118 0 -180.5 71t-62.5 179q0 107 61 177t177 70q54 0 97 -21t67 -53.5t36 -67t12 -67.5q0 -19 -2 -36.5t-4 -25.5zM160 275h200v7 q0 43 -25.5 71.5t-68.5 28.5q-45 0 -72 -29t-34 -78z" />
<glyph unicode="&#xea;" horiz-adv-x="507" d="M429 547h-104l-62 112l-62 -112h-103l96 204h139zM471 203h-310q17 -110 122 -110q40 0 74.5 11t48.5 22l15 11l39 -84q-8 -8 -24 -19t-64.5 -30t-98.5 -19q-118 0 -180.5 71t-62.5 179q0 107 61 177t177 70q54 0 97 -21t67 -53.5t36 -67t12 -67.5q0 -19 -2 -36.5 t-4 -25.5zM160 275h200v7q0 43 -25.5 71.5t-68.5 28.5q-45 0 -72 -29t-34 -78z" />
<glyph unicode="&#xeb;" horiz-adv-x="507" d="M244 609q0 -31 -22.5 -53t-54.5 -22q-31 0 -53.5 22t-22.5 53q0 30 22.5 52.5t53.5 22.5q32 0 54.5 -22.5t22.5 -52.5zM445 609q0 -31 -22.5 -53t-54.5 -22t-54.5 22t-22.5 53q0 30 22.5 52.5t54.5 22.5q31 0 54 -22.5t23 -52.5zM471 203h-310q17 -110 122 -110 q40 0 74.5 11t48.5 22l15 11l39 -84q-8 -8 -24 -19t-64.5 -30t-98.5 -19q-118 0 -180.5 71t-62.5 179q0 107 61 177t177 70q54 0 97 -21t67 -53.5t36 -67t12 -67.5q0 -19 -2 -36.5t-4 -25.5zM160 275h200v7q0 43 -25.5 71.5t-68.5 28.5q-45 0 -72 -29t-34 -78z" />
<glyph unicode="&#xec;" horiz-adv-x="244" d="M188 0h-132v468h132v-468zM186 547h-122l-116 204h156z" />
<glyph unicode="&#xed;" horiz-adv-x="244" d="M184 547h-121l81 204h157zM188 0h-132v468h132v-468z" />
<glyph unicode="&#xee;" horiz-adv-x="244" d="M291 547h-104l-62 112l-62 -112h-103l96 204h139zM188 0h-132v468h132v-468z" />
<glyph unicode="&#xef;" horiz-adv-x="244" d="M100 609q0 -31 -22.5 -53t-54.5 -22q-31 0 -53.5 22t-22.5 53q0 30 22.5 52.5t53.5 22.5q32 0 54.5 -22.5t22.5 -52.5zM301 609q0 -31 -22.5 -53t-54.5 -22t-54.5 22t-22.5 53q0 30 22.5 52.5t54.5 22.5q31 0 54 -22.5t23 -52.5zM188 0h-132v468h132v-468z" />
<glyph unicode="&#xf0;" horiz-adv-x="598" d="M269 485l-40 42l47 56q-16 3 -34 3q-38 0 -71 -12t-47 -24l-14 -11l-60 116q8 6 24 16t68.5 26t109.5 16q64 0 118 -20l61 72l40 -40l-48 -57q69 -44 105.5 -125t36.5 -187t-28 -186.5t-95 -132.5t-168 -52q-107 0 -174.5 63.5t-67.5 161.5q0 111 64.5 171t182.5 60 q70 0 141 -45q-13 117 -87 165zM274 112q56 0 94.5 42.5t50.5 126.5q-62 48 -140 48q-47 0 -74.5 -29.5t-27.5 -81.5q0 -45 27 -75.5t70 -30.5z" />
<glyph unicode="&#xf1;" horiz-adv-x="563" d="M399 672l73 -43q-2 -4 -5 -10.5t-15.5 -24t-27 -30.5t-38.5 -23.5t-51 -10.5q-34 0 -73 27.5t-62 27.5q-19 0 -36.5 -12.5t-25.5 -24.5l-7 -13l-67 55q2 4 5 9.5t15 20.5t26 26.5t38.5 21t51.5 9.5q37 0 79 -28t57 -28q18 0 34 12.5t22 25.5zM549 110l16 -82 q-43 -34 -103 -34q-59 0 -83.5 28.5t-24.5 88.5v154q0 52 -17 74t-52 22q-47 0 -99 -49v-312h-132v443l132 35v-68q72 72 146 72q76 0 115 -46.5t39 -132.5v-174q0 -30 23 -30q7 0 17 2.5t16 5.5z" />
<glyph unicode="&#xf2;" horiz-adv-x="546" d="M339 547h-122l-116 204h156zM516 232q0 -105 -64.5 -176t-178.5 -71t-178.5 71t-64.5 176q0 108 63.5 179t179.5 71t179.5 -71t63.5 -179zM273 95q52 0 81.5 38.5t29.5 99.5t-28.5 99.5t-82.5 38.5t-82 -38.5t-28 -99.5t29 -99.5t81 -38.5z" />
<glyph unicode="&#xf3;" horiz-adv-x="546" d="M324 547h-121l81 204h157zM516 232q0 -105 -64.5 -176t-178.5 -71t-178.5 71t-64.5 176q0 108 63.5 179t179.5 71t179.5 -71t63.5 -179zM273 95q52 0 81.5 38.5t29.5 99.5t-28.5 99.5t-82.5 38.5t-82 -38.5t-28 -99.5t29 -99.5t81 -38.5z" />
<glyph unicode="&#xf4;" horiz-adv-x="546" d="M438 547h-104l-62 112l-62 -112h-103l96 204h139zM516 232q0 -105 -64.5 -176t-178.5 -71t-178.5 71t-64.5 176q0 108 63.5 179t179.5 71t179.5 -71t63.5 -179zM273 95q52 0 81.5 38.5t29.5 99.5t-28.5 99.5t-82.5 38.5t-82 -38.5t-28 -99.5t29 -99.5t81 -38.5z" />
<glyph unicode="&#xf5;" horiz-adv-x="546" d="M516 232q0 -105 -64.5 -176t-178.5 -71t-178.5 71t-64.5 176q0 108 63.5 179t179.5 71t179.5 -71t63.5 -179zM273 95q52 0 81.5 38.5t29.5 99.5t-28.5 99.5t-82.5 38.5t-82 -38.5t-28 -99.5t29 -99.5t81 -38.5zM406 672l73 -43q-2 -4 -5 -10.5t-15.5 -24t-27 -30.5 t-38.5 -23.5t-51 -10.5q-34 0 -73 27.5t-62 27.5q-19 0 -36.5 -12.5t-24.5 -24.5l-8 -13l-67 55q2 4 5 9.5t15 20.5t26 26.5t38.5 21t51.5 9.5q37 0 79 -28t57 -28q18 0 34 12.5t23 25.5z" />
<glyph unicode="&#xf6;" horiz-adv-x="546" d="M250 609q0 -31 -22.5 -53t-54.5 -22q-31 0 -53.5 22t-22.5 53q0 30 22.5 52.5t53.5 22.5q32 0 54.5 -22.5t22.5 -52.5zM451 609q0 -31 -22.5 -53t-54.5 -22t-54.5 22t-22.5 53q0 30 22.5 52.5t54.5 22.5q31 0 54 -22.5t23 -52.5zM516 232q0 -105 -64.5 -176t-178.5 -71 t-178.5 71t-64.5 176q0 108 63.5 179t179.5 71t179.5 -71t63.5 -179zM273 95q52 0 81.5 38.5t29.5 99.5t-28.5 99.5t-82.5 38.5t-82 -38.5t-28 -99.5t29 -99.5t81 -38.5z" />
<glyph unicode="&#xf7;" horiz-adv-x="415" d="M293 70q0 -35 -25.5 -60t-62.5 -25t-62 25t-25 60q0 36 25 61t62 25t62.5 -25.5t25.5 -60.5zM293 472q0 -35 -25.5 -60t-62.5 -25t-62 24.5t-25 60.5t25 61t62 25t62.5 -25.5t25.5 -60.5zM373 208h-331v119h331v-119z" />
<glyph unicode="&#xf8;" horiz-adv-x="546" d="M516 232q0 -105 -64.5 -176t-178.5 -71q-12 0 -36 2l-15 -59h-70l19 75q-68 28 -104.5 89.5t-36.5 139.5q0 108 63.5 179t179.5 71q3 0 11 -0.5t11 -0.5l12 46h71l-16 -59q75 -25 114.5 -88.5t39.5 -147.5zM273 95q52 0 81.5 38.5t29.5 99.5q0 85 -51 121l-68 -259h8z M163 233q0 -73 39 -111l64 249q-51 -3 -77 -41t-26 -97z" />
<glyph unicode="&#xf9;" horiz-adv-x="565" d="M544 110l16 -82q-43 -34 -103 -34q-80 0 -100 63h-1q-61 -72 -153 -72q-75 0 -114.5 46.5t-39.5 132.5v288l132 23v-274q0 -53 17 -75.5t52 -22.5q51 0 99 45v295l132 35v-349q0 -30 23 -30q7 0 17 2.5t17 5.5zM341 547h-122l-116 204h156z" />
<glyph unicode="&#xfa;" horiz-adv-x="565" d="M324 547h-121l81 204h157zM544 110l16 -82q-43 -34 -103 -34q-80 0 -100 63h-1q-61 -72 -153 -72q-75 0 -114.5 46.5t-39.5 132.5v288l132 23v-274q0 -53 17 -75.5t52 -22.5q51 0 99 45v295l132 35v-349q0 -30 23 -30q7 0 17 2.5t17 5.5z" />
<glyph unicode="&#xfb;" horiz-adv-x="565" d="M434 547h-104l-62 112l-62 -112h-103l96 204h139zM544 110l16 -82q-43 -34 -103 -34q-80 0 -100 63h-1q-61 -72 -153 -72q-75 0 -114.5 46.5t-39.5 132.5v288l132 23v-274q0 -53 17 -75.5t52 -22.5q51 0 99 45v295l132 35v-349q0 -30 23 -30q7 0 17 2.5t17 5.5z" />
<glyph unicode="&#xfc;" horiz-adv-x="565" d="M248 609q0 -31 -22.5 -53t-54.5 -22q-31 0 -53.5 22t-22.5 53q0 30 22.5 52.5t53.5 22.5q32 0 54.5 -22.5t22.5 -52.5zM449 609q0 -31 -22.5 -53t-54.5 -22t-54.5 22t-22.5 53q0 30 22.5 52.5t54.5 22.5q31 0 54 -22.5t23 -52.5zM544 110l16 -82q-43 -34 -103 -34 q-80 0 -100 63h-1q-61 -72 -153 -72q-75 0 -114.5 46.5t-39.5 132.5v288l132 23v-274q0 -53 17 -75.5t52 -22.5q51 0 99 45v295l132 35v-349q0 -30 23 -30q7 0 17 2.5t17 5.5z" />
<glyph unicode="&#xfd;" horiz-adv-x="518" d="M232 -263h-135l104 263h-16l-176 468h146l106 -331l103 331h147zM307 547h-121l81 204h157z" />
<glyph unicode="&#xfe;" horiz-adv-x="557" d="M188 -263h-132v978l132 35v-332q47 64 139 64q94 0 146 -70.5t52 -181.5q0 -110 -60.5 -177.5t-157.5 -67.5q-75 0 -119 32v-280zM184 318v-188q32 -35 98 -35q49 0 80 36.5t31 97.5q0 143 -110 143q-60 0 -99 -54z" />
<glyph unicode="&#xff;" horiz-adv-x="518" d="M237 609q0 -31 -22.5 -53t-54.5 -22q-31 0 -53.5 22t-22.5 53q0 30 22.5 52.5t53.5 22.5q32 0 54.5 -22.5t22.5 -52.5zM438 609q0 -31 -22.5 -53t-54.5 -22t-54.5 22t-22.5 53q0 30 22.5 52.5t54.5 22.5q31 0 54 -22.5t23 -52.5zM232 -263h-135l104 263h-16l-176 468h146 l106 -331l103 331h147z" />
<glyph unicode="&#x152;" horiz-adv-x="1144" d="M1104 0h-512v61q-84 -76 -208 -76q-115 0 -195.5 51t-117 132t-36.5 183q0 163 93.5 262.5t255.5 99.5q123 0 208 -77v64h512v-125h-371v-170h292v-114h-292v-166h371v-125zM590 351q0 107 -55.5 171.5t-150.5 64.5q-96 0 -151.5 -64.5t-55.5 -171.5q0 -106 51.5 -173 t155.5 -67q103 0 154.5 67.5t51.5 172.5z" />
<glyph unicode="&#x153;" horiz-adv-x="868" d="M832 203h-311q19 -110 123 -110q40 0 74.5 11t49.5 22l14 11l39 -84q-9 -8 -24.5 -19t-64.5 -30t-99 -19q-118 0 -180 83q-66 -83 -180 -83t-178.5 71t-64.5 176q0 108 63.5 179t179.5 71q113 0 178 -83q63 83 178 83q54 0 97 -21t67 -53.5t36 -67t12 -67.5 q0 -19 -2.5 -36.5t-4.5 -25.5zM273 95q52 0 81.5 38.5t29.5 99.5t-28.5 99.5t-82.5 38.5t-82 -38.5t-28 -99.5t29 -99.5t81 -38.5zM520 275h200v5q-2 47 -25.5 74.5t-67.5 27.5q-45 0 -72 -28.5t-35 -78.5z" />
<glyph unicode="&#x178;" horiz-adv-x="674" d="M407 0h-140v257l-263 443h165l168 -305l170 305h163l-263 -444v-256zM316 828q0 -31 -22.5 -53t-54.5 -22q-31 0 -53.5 22t-22.5 53q0 30 22.5 52.5t53.5 22.5q32 0 54.5 -22.5t22.5 -52.5zM517 828q0 -31 -22.5 -53t-54.5 -22t-54.5 22t-22.5 53q0 30 22.5 52.5 t54.5 22.5q31 0 54 -22.5t23 -52.5z" />
<glyph unicode="&#x2c6;" horiz-adv-x="382" d="M356 547h-104l-62 112l-62 -112h-103l96 204h139z" />
<glyph unicode="&#x2dc;" horiz-adv-x="448" d="M355 672l73 -43q-2 -4 -5 -10.5t-15.5 -24t-27 -30.5t-38.5 -23.5t-51 -10.5q-34 0 -73 27.5t-62 27.5q-19 0 -36.5 -12.5t-25.5 -24.5l-7 -13l-67 55q2 4 5 9.5t15 20.5t26 26.5t38.5 21t51.5 9.5q37 0 79 -28t57 -28q18 0 34 12.5t22 25.5z" />
<glyph unicode="&#x2000;" horiz-adv-x="487" />
<glyph unicode="&#x2001;" horiz-adv-x="975" />
<glyph unicode="&#x2002;" horiz-adv-x="487" />
<glyph unicode="&#x2003;" horiz-adv-x="975" />
<glyph unicode="&#x2004;" horiz-adv-x="325" />
<glyph unicode="&#x2005;" horiz-adv-x="243" />
<glyph unicode="&#x2006;" horiz-adv-x="162" />
<glyph unicode="&#x2007;" horiz-adv-x="162" />
<glyph unicode="&#x2008;" horiz-adv-x="121" />
<glyph unicode="&#x2009;" horiz-adv-x="195" />
<glyph unicode="&#x200a;" horiz-adv-x="54" />
<glyph unicode="&#x2010;" horiz-adv-x="380" d="M325 222h-271v119h271v-119z" />
<glyph unicode="&#x2011;" horiz-adv-x="380" d="M325 222h-271v119h271v-119z" />
<glyph unicode="&#x2012;" horiz-adv-x="380" d="M325 222h-271v119h271v-119z" />
<glyph unicode="&#x2013;" horiz-adv-x="525" d="M469 228h-414v109h414v-109z" />
<glyph unicode="&#x2014;" horiz-adv-x="845" d="M790 228h-735v109h735v-109z" />
<glyph unicode="&#x2018;" horiz-adv-x="272" d="M136 730h5q39 0 65.5 -26t26.5 -63q0 -38 -26.5 -64t-65.5 -26q-50 0 -75.5 32.5t-25.5 85.5q0 52 11 94t26 65t30.5 38.5t26.5 20.5l11 5l43 -45q-6 -4 -14.5 -12.5t-23 -37.5t-14.5 -63v-4z" />
<glyph unicode="&#x2019;" horiz-adv-x="238" d="M101 487l-43 45q6 4 14.5 12.5t23 37.5t14.5 63v4h-5q-39 0 -66 26t-27 63q0 38 27 64t66 26q49 0 75 -32.5t26 -85.5q0 -52 -11 -94t-26 -65t-30.5 -38.5t-26.5 -20.5z" />
<glyph unicode="&#x201a;" horiz-adv-x="280" d="M131 -177l-43 45q6 4 14.5 12.5t23 37.5t14.5 63v4h-5q-39 0 -65.5 26t-26.5 63q0 38 26.5 64t65.5 26q49 0 75 -32.5t26 -85.5q0 -52 -11 -94t-26 -65t-30.5 -38.5t-26.5 -20.5z" />
<glyph unicode="&#x201c;" horiz-adv-x="517" d="M380 730h5q39 0 66 -26t27 -63q0 -38 -27 -64t-66 -26q-49 0 -75 32.5t-26 85.5q0 52 11 94t26.5 65t31 38.5t26.5 20.5l11 5l42 -45q-6 -4 -14.5 -12.5t-23 -37.5t-14.5 -63v-4zM136 730h5q39 0 65.5 -26t26.5 -63q0 -38 -26.5 -64t-65.5 -26q-50 0 -75.5 32.5 t-25.5 85.5q0 52 11 94t26 65t30.5 38.5t26.5 20.5l11 5l43 -45q-6 -4 -14.5 -12.5t-23 -37.5t-14.5 -63v-4z" />
<glyph unicode="&#x201d;" horiz-adv-x="476" d="M101 487l-43 45q6 4 14.5 12.5t23 37.5t14.5 63v4h-5q-39 0 -66 26t-27 63q0 38 27 64t66 26q49 0 75 -32.5t26 -85.5q0 -52 -11 -94t-26 -65t-30.5 -38.5t-26.5 -20.5zM338 487l-43 45q6 4 14.5 12.5t23 37.5t14.5 63v4h-5q-39 0 -66 26t-27 63q0 38 27 64t66 26 q49 0 75 -32.5t26 -85.5q0 -52 -11 -94t-26.5 -65t-30.5 -38.5t-26 -20.5z" />
<glyph unicode="&#x201e;" horiz-adv-x="521" d="M131 -177l-43 45q6 4 14.5 12.5t23 37.5t14.5 63v4h-5q-39 0 -65.5 26t-26.5 63q0 38 26.5 64t65.5 26q49 0 75 -32.5t26 -85.5q0 -52 -11 -94t-26 -65t-30.5 -38.5t-26.5 -20.5zM371 -177l-43 45q6 4 14.5 12.5t23 37.5t14.5 63v4h-5q-39 0 -65.5 26t-26.5 63 q0 38 26.5 64t65.5 26q49 0 75 -32.5t26 -85.5q0 -52 -11 -94t-26 -65t-30.5 -38.5t-26.5 -20.5z" />
<glyph unicode="&#x2022;" horiz-adv-x="445" d="M63 318q0 71 46.5 120t113.5 49q66 0 113 -49.5t47 -119.5t-47 -119.5t-113 -49.5q-67 0 -113.5 49t-46.5 120z" />
<glyph unicode="&#x2026;" horiz-adv-x="748" d="M228 74q0 -37 -27 -63t-66 -26t-65.5 26t-26.5 63q0 38 26.5 64t65.5 26t66 -26t27 -64zM470 74q0 -37 -27 -63t-66 -26t-65.5 26t-26.5 63q0 38 26.5 64t65.5 26t66 -26t27 -64zM705 74q0 -37 -27 -63t-66 -26t-66 26t-27 63q0 38 27 64t66 26t66 -26t27 -64z" />
<glyph unicode="&#x202f;" horiz-adv-x="195" />
<glyph unicode="&#x2039;" horiz-adv-x="329" d="M295 51l-68 -69l-191 191v89l191 190l67 -68l-142 -167z" />
<glyph unicode="&#x203a;" horiz-adv-x="329" d="M293 173l-191 -191l-68 69l142 166l-141 167l67 68l191 -190v-89z" />
<glyph unicode="&#x205f;" horiz-adv-x="243" />
<glyph unicode="&#x20ac;" horiz-adv-x="768" d="M506 221h-226q53 -110 184 -110q62 0 121 21.5t87 43.5l28 21l37 -121q-4 -4 -11.5 -10t-33.5 -21.5t-56 -27.5t-78 -22t-100 -10q-139 0 -222.5 63.5t-114.5 172.5h-79v83h464v-83zM506 378h-464v84h72q27 118 114.5 184.5t229.5 66.5q76 0 137 -17.5t85 -35.5l23 -17 l-51 -117q-7 7 -20 17t-63.5 27t-110.5 17q-66 0 -115.5 -33t-73.5 -92h237v-84z" />
<glyph unicode="&#x2122;" horiz-adv-x="897" d="M262 325h-91v264h-122v86h330v-86h-117v-264zM835 325h-89v216l-82 -216h-83l-82 216v-216h-87v350h117l94 -252l93 252h119v-350z" />
<glyph unicode="&#x25fc;" horiz-adv-x="470" d="M0 470h470v-470h-470v470z" />
<glyph unicode="&#xfb01;" horiz-adv-x="625" d="M569 0h-132v356h-212v-356h-132v356h-76l18 112h58v80q0 203 186 203q31 0 58.5 -7.5t40.5 -15.5l12 -7l-36 -105q-21 15 -58 15q-71 0 -71 -85v-78h344v-468zM585 623q0 -35 -22.5 -56.5t-58.5 -21.5t-58 21.5t-22 56.5t22 56.5t58 21.5t58.5 -21.5t22.5 -56.5z" />
<glyph unicode="&#xfb02;" horiz-adv-x="667" d="M225 0h-132v356h-76l18 112h58v80q0 203 186 203q35 0 66.5 -7.5t45.5 -15.5l14 -7l-36 -105q-27 15 -73 15q-71 0 -71 -85v-78h146v-112h-146v-356zM653 111l16 -84q-50 -33 -122 -33q-61 0 -85.5 28.5t-24.5 88.5v604l132 35v-618q0 -18 6.5 -25.5t21.5 -7.5q9 0 23 3 t24 6z" />
</font>
</defs>
</svg>
